0
SECTION
2
TABLES
0
TABLE
2
LAYER
70
1
0
LAYER
2
0
70
0
62
7
6
CONTINUOUS
0
ENDTAB
0
ENDSEC
0
SECTION
2
ENTITIES
0
POLYLINE
8
0
66
1
70
0
0
VERTEX
8
0
10
0.0
20
0.0
30
0.0
0
VERTEX
8
0
10
5.435139124969085
20
-0.0028024020725143685
30
0.0
0
VERTEX
8
0
10
11.223856293812089
20
-0.011201470826749963
30
0.0
0
VERTEX
8
0
10
17.341224159664282
20
-0.025185000067745524
30
0.0
0
VERTEX
8
0
10
23.76231537566096
20
-0.04474078360053979
30
0.0
0
VERTEX
8
0
10
30.46220259493742
20
-0.0698566152301715
30
0.0
0
VERTEX
8
0
10
37.4159584706289
20
-0.10052028876167936
30
0.0
0
VERTEX
8
0
10
44.59865565587072
20
-0.13671959800010217
30
0.0
0
VERTEX
8
0
10
51.98536680379816
20
-0.1784423367504786
30
0.0
0
VERTEX
8
0
10
59.55116456754648
20
-0.2256762988178474
30
0.0
0
VERTEX
8
0
10
67.27112160025099
20
-0.27840927800724735
30
0.0
0
VERTEX
8
0
10
75.12031055504694
20
-0.3366290681237172
30
0.0
0
VERTEX
8
0
10
83.07380408506961
20
-0.4003234629722955
30
0.0
0
VERTEX
8
0
10
91.10667484345436
20
-0.46948025635802126
30
0.0
0
VERTEX
8
0
10
99.19399548333641
20
-0.5440872420859332
30
0.0
0
VERTEX
8
0
10
107.31083865785102
20
-0.6241322139610695
30
0.0
0
VERTEX
8
0
10
115.43227702013351
20
-0.7096029657884697
30
0.0
0
VERTEX
8
0
10
123.53338322331919
20
-0.8004872913731724
30
0.0
0
VERTEX
8
0
10
131.58922992054323
20
-0.8967729845202156
30
0.0
0
VERTEX
8
0
10
139.57488976494105
20
-0.9984478390346387
30
0.0
0
VERTEX
8
0
10
147.46543540964785
20
-1.1054996487214805
30
0.0
0
VERTEX
8
0
10
155.2359395077989
20
-1.217916207385779
30
0.0
0
VERTEX
8
0
10
162.8614747125296
20
-1.3356853088325744
30
0.0
0
VERTEX
8
0
10
170.31711367697508
20
-1.4587947468669038
30
0.0
0
VERTEX
8
0
10
177.57792905427073
20
-1.5872323152938068
30
0.0
0
VERTEX
8
0
10
184.6189934975518
20
-1.7209858079183218
30
0.0
0
VERTEX
8
0
10
184.64025195937558
20
-1.7000542795321207
30
0.0
0
VERTEX
8
0
10
184.70169765040055
20
-1.6371291069835254
30
0.0
0
VERTEX
8
0
10
184.7998360289571
20
-1.5320144091875467
30
0.0
0
VERTEX
8
0
10
184.93117255337546
20
-1.384514305059197
30
0.0
0
VERTEX
8
0
10
185.092212681986
20
-1.1944329135134861
30
0.0
0
VERTEX
8
0
10
185.27946187311912
20
-0.9615743534654257
30
0.0
0
VERTEX
8
0
10
185.48942558510515
20
-0.6857427438300269
30
0.0
0
VERTEX
8
0
10
185.71860927627444
20
-0.3667422035223012
30
0.0
0
VERTEX
8
0
10
185.96351840495728
20
-0.004376851457259592
30
0.0
0
VERTEX
8
0
10
186.2206584294841
20
0.4015491934500841
30
0.0
0
VERTEX
8
0
10
186.48653480818518
20
0.8512318122847233
30
0.0
0
VERTEX
8
0
10
186.75765299939087
20
1.3448668861316442
30
0.0
0
VERTEX
8
0
10
187.0305184614315
20
1.882650296075836
30
0.0
0
VERTEX
8
0
10
187.30163665263746
20
2.464777923202287
30
0.0
0
VERTEX
8
0
10
187.56751303133908
20
3.091445648595987
30
0.0
0
VERTEX
8
0
10
187.8246530558667
20
3.7628493533419194
30
0.0
0
VERTEX
8
0
10
188.06956218455065
20
4.479184918525082
30
0.0
0
VERTEX
8
0
10
188.2987458757213
20
5.2406482252304585
30
0.0
0
VERTEX
8
0
10
188.50870958770898
20
6.047435154543038
30
0.0
0
VERTEX
8
0
10
188.69595877884407
20
6.899741587547811
30
0.0
0
VERTEX
8
0
10
188.8569989074568
20
7.797763405329764
30
0.0
0
VERTEX
8
0
10
188.98833543187772
20
8.74169648897388
30
0.0
0
VERTEX
8
0
10
189.08647381043693
20
9.731736719565161
30
0.0
0
VERTEX
8
0
10
189.14791950146497
20
10.76807997818859
30
0.0
0
VERTEX
8
0
10
189.1691779632921
20
11.850922145929152
30
0.0
0
VERTEX
8
0
10
189.12624477598771
20
13.167178308681693
30
0.0
0
VERTEX
8
0
10
188.99383385313894
20
14.449471200597053
30
0.0
0
VERTEX
8
0
10
188.76652815335464
20
15.698801707868418
30
0.0
0
VERTEX
8
0
10
188.43891063524384
20
16.91617071668899
30
0.0
0
VERTEX
8
0
10
188.00556425741547
20
18.102579113251945
30
0.0
0
VERTEX
8
0
10
187.4610719784785
20
19.259027783750483
30
0.0
0
VERTEX
8
0
10
186.80001675704193
20
20.386517614377784
30
0.0
0
VERTEX
8
0
10
186.0169815517147
20
21.48604949132706
30
0.0
0
VERTEX
8
0
10
185.10654932110577
20
22.558624300791486
30
0.0
0
VERTEX
8
0
10
184.06330302382406
20
23.60524292896426
30
0.0
0
VERTEX
8
0
10
182.8818256184786
20
24.62690626203856
30
0.0
0
VERTEX
8
0
10
181.55670006367828
20
25.624615186207592
30
0.0
0
VERTEX
8
0
10
180.08250931803218
20
26.599370587664538
30
0.0
0
VERTEX
8
0
10
178.4538363401491
20
27.55217335260259
30
0.0
0
VERTEX
8
0
10
176.66526408863814
20
28.484024367214943
30
0.0
0
VERTEX
8
0
10
174.71137552210823
20
29.395924517694777
30
0.0
0
VERTEX
8
0
10
172.58675359916828
20
30.28887469023529
30
0.0
0
VERTEX
8
0
10
170.2859812784273
20
31.163875771029677
30
0.0
0
VERTEX
8
0
10
167.8036415184943
20
32.02192864627111
30
0.0
0
VERTEX
8
0
10
165.1343172779781
20
32.8640342021528
30
0.0
0
VERTEX
8
0
10
162.2725915154878
20
33.69119332486793
30
0.0
0
VERTEX
8
0
10
159.21304718963228
20
34.504406900609695
30
0.0
0
VERTEX
8
0
10
155.9502672590205
20
35.30467581557128
30
0.0
0
VERTEX
8
0
10
152.47883468226152
20
36.093000955945875
30
0.0
0
VERTEX
8
0
10
148.7933324179642
20
36.87038320792667
30
0.0
0
VERTEX
8
0
10
145.32486937791592
20
37.55281375640185
30
0.0
0
VERTEX
8
0
10
141.6786219219748
20
38.223045284545066
30
0.0
0
VERTEX
8
0
10
137.85078725377178
20
38.879745234567075
30
0.0
0
VERTEX
8
0
10
133.83756257693773
20
39.52158104867862
30
0.0
0
VERTEX
8
0
10
129.63514509510355
20
40.14722016909041
30
0.0
0
VERTEX
8
0
10
125.23973201190017
20
40.75533003801322
30
0.0
0
VERTEX
8
0
10
120.64752053095853
20
41.34457809765777
30
0.0
0
VERTEX
8
0
10
115.85470785590948
20
41.913631790234795
30
0.0
0
VERTEX
8
0
10
110.85749119038398
20
42.461158557955045
30
0.0
0
VERTEX
8
0
10
105.6520677380129
20
42.98582584302926
30
0.0
0
VERTEX
8
0
10
100.23463470242717
20
43.48630108766816
30
0.0
0
VERTEX
8
0
10
94.60138928725772
20
43.96125173408251
30
0.0
0
VERTEX
8
0
10
88.74852869613547
20
44.409345224483026
30
0.0
0
VERTEX
8
0
10
82.67225013269127
20
44.829249001080456
30
0.0
0
VERTEX
8
0
10
76.3687508005561
20
45.219630506085544
30
0.0
0
VERTEX
8
0
10
69.83422790336083
20
45.57915718170902
30
0.0
0
VERTEX
8
0
10
63.06487864473638
20
45.90649647016161
30
0.0
0
VERTEX
8
0
10
56.05690022831368
20
46.2003158136541
30
0.0
0
VERTEX
8
0
10
48.80648985772369
20
46.45928265439718
30
0.0
0
VERTEX
8
0
10
41.3098447365972
20
46.6820644346016
30
0.0
0
VERTEX
8
0
10
33.56316206856518
20
46.86732859647811
30
0.0
0
VERTEX
8
0
10
25.562639057258533
20
47.01374258223744
30
0.0
0
VERTEX
8
0
10
17.304472906308177
20
47.11997383409034
30
0.0
0
VERTEX
8
0
10
8.78486081934503
20
47.18468979424753
30
0.0
0
VERTEX
8
0
10
0.0
20
47.20655790491976
30
0.0
0
SEQEND
0
POLYLINE
8
0
66
1
70
0
0
VERTEX
8
0
10
0.0
20
0.0
30
0.0
0
VERTEX
8
0
10
-5.435139124969085
20
-0.0028024020725143685
30
0.0
0
VERTEX
8
0
10
-11.223856293812089
20
-0.011201470826749963
30
0.0
0
VERTEX
8
0
10
-17.341224159664282
20
-0.025185000067745524
30
0.0
0
VERTEX
8
0
10
-23.76231537566096
20
-0.04474078360053979
30
0.0
0
VERTEX
8
0
10
-30.46220259493742
20
-0.0698566152301715
30
0.0
0
VERTEX
8
0
10
-37.4159584706289
20
-0.10052028876167936
30
0.0
0
VERTEX
8
0
10
-44.59865565587072
20
-0.13671959800010217
30
0.0
0
VERTEX
8
0
10
-51.98536680379816
20
-0.1784423367504786
30
0.0
0
VERTEX
8
0
10
-59.55116456754648
20
-0.2256762988178474
30
0.0
0
VERTEX
8
0
10
-67.27112160025099
20
-0.27840927800724735
30
0.0
0
VERTEX
8
0
10
-75.12031055504694
20
-0.3366290681237172
30
0.0
0
VERTEX
8
0
10
-83.07380408506961
20
-0.4003234629722955
30
0.0
0
VERTEX
8
0
10
-91.10667484345436
20
-0.46948025635802126
30
0.0
0
VERTEX
8
0
10
-99.19399548333641
20
-0.5440872420859332
30
0.0
0
VERTEX
8
0
10
-107.31083865785102
20
-0.6241322139610695
30
0.0
0
VERTEX
8
0
10
-115.43227702013351
20
-0.7096029657884697
30
0.0
0
VERTEX
8
0
10
-123.53338322331919
20
-0.8004872913731724
30
0.0
0
VERTEX
8
0
10
-131.58922992054323
20
-0.8967729845202156
30
0.0
0
VERTEX
8
0
10
-139.57488976494105
20
-0.9984478390346387
30
0.0
0
VERTEX
8
0
10
-147.46543540964785
20
-1.1054996487214805
30
0.0
0
VERTEX
8
0
10
-155.2359395077989
20
-1.217916207385779
30
0.0
0
VERTEX
8
0
10
-162.8614747125296
20
-1.3356853088325744
30
0.0
0
VERTEX
8
0
10
-170.31711367697508
20
-1.4587947468669038
30
0.0
0
VERTEX
8
0
10
-177.57792905427073
20
-1.5872323152938068
30
0.0
0
VERTEX
8
0
10
-184.6189934975518
20
-1.7209858079183218
30
0.0
0
VERTEX
8
0
10
-184.64025195937558
20
-1.7000542795321207
30
0.0
0
VERTEX
8
0
10
-184.70169765040055
20
-1.6371291069835254
30
0.0
0
VERTEX
8
0
10
-184.7998360289571
20
-1.5320144091875467
30
0.0
0
VERTEX
8
0
10
-184.93117255337546
20
-1.384514305059197
30
0.0
0
VERTEX
8
0
10
-185.092212681986
20
-1.1944329135134861
30
0.0
0
VERTEX
8
0
10
-185.27946187311912
20
-0.9615743534654257
30
0.0
0
VERTEX
8
0
10
-185.48942558510515
20
-0.6857427438300269
30
0.0
0
VERTEX
8
0
10
-185.71860927627444
20
-0.3667422035223012
30
0.0
0
VERTEX
8
0
10
-185.96351840495728
20
-0.004376851457259592
30
0.0
0
VERTEX
8
0
10
-186.2206584294841
20
0.4015491934500841
30
0.0
0
VERTEX
8
0
10
-186.48653480818518
20
0.8512318122847233
30
0.0
0
VERTEX
8
0
10
-186.75765299939087
20
1.3448668861316442
30
0.0
0
VERTEX
8
0
10
-187.0305184614315
20
1.882650296075836
30
0.0
0
VERTEX
8
0
10
-187.30163665263746
20
2.464777923202287
30
0.0
0
VERTEX
8
0
10
-187.56751303133908
20
3.091445648595987
30
0.0
0
VERTEX
8
0
10
-187.8246530558667
20
3.7628493533419194
30
0.0
0
VERTEX
8
0
10
-188.06956218455065
20
4.479184918525082
30
0.0
0
VERTEX
8
0
10
-188.2987458757213
20
5.2406482252304585
30
0.0
0
VERTEX
8
0
10
-188.50870958770898
20
6.047435154543038
30
0.0
0
VERTEX
8
0
10
-188.69595877884407
20
6.899741587547811
30
0.0
0
VERTEX
8
0
10
-188.8569989074568
20
7.797763405329764
30
0.0
0
VERTEX
8
0
10
-188.98833543187772
20
8.74169648897388
30
0.0
0
VERTEX
8
0
10
-189.08647381043693
20
9.731736719565161
30
0.0
0
VERTEX
8
0
10
-189.14791950146497
20
10.76807997818859
30
0.0
0
VERTEX
8
0
10
-189.1691779632921
20
11.850922145929152
30
0.0
0
VERTEX
8
0
10
-189.12624477598771
20
13.167178308681693
30
0.0
0
VERTEX
8
0
10
-188.99383385313894
20
14.449471200597053
30
0.0
0
VERTEX
8
0
10
-188.76652815335464
20
15.698801707868418
30
0.0
0
VERTEX
8
0
10
-188.43891063524384
20
16.91617071668899
30
0.0
0
VERTEX
8
0
10
-188.00556425741547
20
18.102579113251945
30
0.0
0
VERTEX
8
0
10
-187.4610719784785
20
19.259027783750483
30
0.0
0
VERTEX
8
0
10
-186.80001675704193
20
20.386517614377784
30
0.0
0
VERTEX
8
0
10
-186.0169815517147
20
21.48604949132706
30
0.0
0
VERTEX
8
0
10
-185.10654932110577
20
22.558624300791486
30
0.0
0
VERTEX
8
0
10
-184.06330302382406
20
23.60524292896426
30
0.0
0
VERTEX
8
0
10
-182.8818256184786
20
24.62690626203856
30
0.0
0
VERTEX
8
0
10
-181.55670006367828
20
25.624615186207592
30
0.0
0
VERTEX
8
0
10
-180.08250931803218
20
26.599370587664538
30
0.0
0
VERTEX
8
0
10
-178.4538363401491
20
27.55217335260259
30
0.0
0
VERTEX
8
0
10
-176.66526408863814
20
28.484024367214943
30
0.0
0
VERTEX
8
0
10
-174.71137552210823
20
29.395924517694777
30
0.0
0
VERTEX
8
0
10
-172.58675359916828
20
30.28887469023529
30
0.0
0
VERTEX
8
0
10
-170.2859812784273
20
31.163875771029677
30
0.0
0
VERTEX
8
0
10
-167.8036415184943
20
32.02192864627111
30
0.0
0
VERTEX
8
0
10
-165.1343172779781
20
32.8640342021528
30
0.0
0
VERTEX
8
0
10
-162.2725915154878
20
33.69119332486793
30
0.0
0
VERTEX
8
0
10
-159.21304718963228
20
34.504406900609695
30
0.0
0
VERTEX
8
0
10
-155.9502672590205
20
35.30467581557128
30
0.0
0
VERTEX
8
0
10
-152.47883468226152
20
36.093000955945875
30
0.0
0
VERTEX
8
0
10
-148.7933324179642
20
36.87038320792667
30
0.0
0
VERTEX
8
0
10
-145.32486937791592
20
37.55281375640185
30
0.0
0
VERTEX
8
0
10
-141.6786219219748
20
38.223045284545066
30
0.0
0
VERTEX
8
0
10
-137.85078725377178
20
38.879745234567075
30
0.0
0
VERTEX
8
0
10
-133.83756257693773
20
39.52158104867862
30
0.0
0
VERTEX
8
0
10
-129.63514509510355
20
40.14722016909041
30
0.0
0
VERTEX
8
0
10
-125.23973201190017
20
40.75533003801322
30
0.0
0
VERTEX
8
0
10
-120.64752053095853
20
41.34457809765777
30
0.0
0
VERTEX
8
0
10
-115.85470785590948
20
41.913631790234795
30
0.0
0
VERTEX
8
0
10
-110.85749119038398
20
42.461158557955045
30
0.0
0
VERTEX
8
0
10
-105.6520677380129
20
42.98582584302926
30
0.0
0
VERTEX
8
0
10
-100.23463470242717
20
43.48630108766816
30
0.0
0
VERTEX
8
0
10
-94.60138928725772
20
43.96125173408251
30
0.0
0
VERTEX
8
0
10
-88.74852869613547
20
44.409345224483026
30
0.0
0
VERTEX
8
0
10
-82.67225013269127
20
44.829249001080456
30
0.0
0
VERTEX
8
0
10
-76.3687508005561
20
45.219630506085544
30
0.0
0
VERTEX
8
0
10
-69.83422790336083
20
45.57915718170902
30
0.0
0
VERTEX
8
0
10
-63.06487864473638
20
45.90649647016161
30
0.0
0
VERTEX
8
0
10
-56.05690022831368
20
46.2003158136541
30
0.0
0
VERTEX
8
0
10
-48.80648985772369
20
46.45928265439718
30
0.0
0
VERTEX
8
0
10
-41.3098447365972
20
46.6820644346016
30
0.0
0
VERTEX
8
0
10
-33.56316206856518
20
46.86732859647811
30
0.0
0
VERTEX
8
0
10
-25.562639057258533
20
47.01374258223744
30
0.0
0
VERTEX
8
0
10
-17.304472906308177
20
47.11997383409034
30
0.0
0
VERTEX
8
0
10
-8.78486081934503
20
47.18468979424753
30
0.0
0
VERTEX
8
0
10
0.0
20
47.20655790491976
30
0.0
0
SEQEND
0
ENDSEC
0
EOF
