0
SECTION
2
TABLES
0
TABLE
2
LAYER
70
1
0
LAYER
2
0
70
0
62
7
6
CONTINUOUS
0
ENDTAB
0
ENDSEC
0
SECTION
2
ENTITIES
0
POLYLINE
8
0
66
1
70
0
0
VERTEX
8
0
10
0.0
20
52.23026371302116
30
0.0
0
VERTEX
8
0
10
21.8329160293635
20
49.81355833284433
30
0.0
0
VERTEX
8
0
10
43.35868239942195
20
47.47009128160877
30
0.0
0
VERTEX
8
0
10
64.5906529794083
20
45.198785419127844
30
0.0
0
VERTEX
8
0
10
85.54218163855553
20
42.99856360521501
30
0.0
0
VERTEX
8
0
10
106.22662224609654
20
40.86834869968364
30
0.0
0
VERTEX
8
0
10
126.6573286712642
20
38.807063562347125
30
0.0
0
VERTEX
8
0
10
146.8476547832916
20
36.813631053018916
30
0.0
0
VERTEX
8
0
10
166.81095445141153
20
34.8869740315124
30
0.0
0
VERTEX
8
0
10
186.5605815448571
20
33.026015357641
30
0.0
0
VERTEX
8
0
10
206.10988993286114
20
31.229677891218103
30
0.0
0
VERTEX
8
0
10
225.4722334846565
20
29.496884492057113
30
0.0
0
VERTEX
8
0
10
244.66096606947627
20
27.826558019971458
30
0.0
0
VERTEX
8
0
10
263.68944155655333
20
26.21762133477453
30
0.0
0
VERTEX
8
0
10
282.5710138151207
20
24.668997296279752
30
0.0
0
VERTEX
8
0
10
301.31903671441114
20
23.17960876430051
30
0.0
0
VERTEX
8
0
10
319.94686412365775
20
21.748378598650234
30
0.0
0
VERTEX
8
0
10
338.4678499120934
20
20.374229659142316
30
0.0
0
VERTEX
8
0
10
356.8953479489511
20
19.056084805590185
30
0.0
0
VERTEX
8
0
10
375.24271210346376
20
17.79286689780722
30
0.0
0
VERTEX
8
0
10
393.5232962448641
20
16.58349879560684
30
0.0
0
VERTEX
8
0
10
411.75045424238544
20
15.426903358802463
30
0.0
0
VERTEX
8
0
10
429.9375399652606
20
14.322003447207482
30
0.0
0
VERTEX
8
0
10
448.0979072827224
20
13.267721920635307
30
0.0
0
VERTEX
8
0
10
466.24491006400376
20
12.262981638899351
30
0.0
0
VERTEX
8
0
10
484.39190217833766
20
11.30670546181302
30
0.0
0
VERTEX
8
0
10
502.55223749495724
20
10.397816249189722
30
0.0
0
VERTEX
8
0
10
520.7392698830952
20
9.535236860842863
30
0.0
0
VERTEX
8
0
10
538.9663532119845
20
8.717890156585852
30
0.0
0
VERTEX
8
0
10
557.2468413508582
20
7.9446989962321
30
0.0
0
VERTEX
8
0
10
575.5940881689492
20
7.214586239595007
30
0.0
0
VERTEX
8
0
10
594.0214475354903
20
6.526474746487983
30
0.0
0
VERTEX
8
0
10
612.5422733197148
20
5.879287376724437
30
0.0
0
VERTEX
8
0
10
631.1699193908552
20
5.271946990117778
30
0.0
0
VERTEX
8
0
10
649.9177396181448
20
4.70337644648141
30
0.0
0
VERTEX
8
0
10
668.799087870816
20
4.1724986056287445
30
0.0
0
VERTEX
8
0
10
687.8273180181025
20
3.6782363273731873
30
0.0
0
VERTEX
8
0
10
707.0157839292367
20
3.219512471528145
30
0.0
0
VERTEX
8
0
10
726.3778394734517
20
2.795249897907026
30
0.0
0
VERTEX
8
0
10
745.9268385199803
20
2.404371466323238
30
0.0
0
VERTEX
8
0
10
765.676134938056
20
2.045800036590189
30
0.0
0
VERTEX
8
0
10
785.6390825969108
20
1.718458468521288
30
0.0
0
VERTEX
8
0
10
805.8290353657785
20
1.4212696219299388
30
0.0
0
VERTEX
8
0
10
826.2593471138915
20
1.153156356629551
30
0.0
0
VERTEX
8
0
10
846.943371710483
20
0.9130415324335328
30
0.0
0
VERTEX
8
0
10
867.8944630247861
20
0.6998480091552911
30
0.0
0
VERTEX
8
0
10
889.1259749260332
20
0.5124986466082337
30
0.0
0
VERTEX
8
0
10
910.6512612834575
20
0.3499163046057691
30
0.0
0
VERTEX
8
0
10
932.4836759662924
20
0.2110238429613031
30
0.0
0
VERTEX
8
0
10
954.63657284377
20
0.0947441214882442
30
0.0
0
VERTEX
8
0
10
977.1233057851239
20
0.0
30
0.0
0
VERTEX
8
0
10
1013.2133649084296
20
-0.05339507833919396
30
0.0
0
VERTEX
8
0
10
1048.3973428046284
20
0.055313270991510524
30
0.0
0
VERTEX
8
0
10
1082.68325596562
20
0.32138608567156585
30
0.0
0
VERTEX
8
0
10
1116.0791208833057
20
0.7400844033804245
30
0.0
0
VERTEX
8
0
10
1148.592954049587
20
1.3066692617975386
30
0.0
0
VERTEX
8
0
10
1180.2327719563636
20
2.016401698602361
30
0.0
0
VERTEX
8
0
10
1211.0065910955368
20
2.8645427514743336
30
0.0
0
VERTEX
8
0
10
1240.922427959008
20
3.8463534580929277
30
0.0
0
VERTEX
8
0
10
1269.9882990386777
20
4.957094856137588
30
0.0
0
VERTEX
8
0
10
1298.2122208264464
20
6.1920279832877645
30
0.0
0
VERTEX
8
0
10
1325.6022098142148
20
7.546413877222911
30
0.0
0
VERTEX
8
0
10
1352.1662824938844
20
9.015513575622482
30
0.0
0
VERTEX
8
0
10
1377.9124553573552
20
10.594588116165928
30
0.0
0
VERTEX
8
0
10
1402.848744896529
20
12.2788985365327
30
0.0
0
VERTEX
8
0
10
1426.983167603306
20
14.063705874402253
30
0.0
0
VERTEX
8
0
10
1450.3237399695868
20
15.944271167454037
30
0.0
0
VERTEX
8
0
10
1472.8784784872728
20
17.915855453367506
30
0.0
0
VERTEX
8
0
10
1494.6553996482644
20
19.97371976982211
30
0.0
0
VERTEX
8
0
10
1515.6625199444625
20
22.113125154497286
30
0.0
0
VERTEX
8
0
10
1535.9078558677686
20
24.32933264507252
30
0.0
0
VERTEX
8
0
10
1555.3994239100823
20
26.617603279227247
30
0.0
0
VERTEX
8
0
10
1574.1452405633058
20
28.973198094640928
30
0.0
0
VERTEX
8
0
10
1592.1533223193387
20
31.391378128992997
30
0.0
0
VERTEX
8
0
10
1609.4316856700823
20
33.867404419962924
30
0.0
0
VERTEX
8
0
10
1625.9883471074381
20
36.396538005230155
30
0.0
0
VERTEX
8
0
10
1641.8313231233058
20
38.97403992247415
30
0.0
0
VERTEX
8
0
10
1656.968630209587
20
41.59517120937434
30
0.0
0
VERTEX
8
0
10
1671.408284858182
20
44.255192903610194
30
0.0
0
VERTEX
8
0
10
1685.1583035609917
20
46.949366042861165
30
0.0
0
VERTEX
8
0
10
1698.2267028099172
20
49.67295166480671
30
0.0
0
VERTEX
8
0
10
1710.6214990968597
20
52.42121080712627
30
0.0
0
VERTEX
8
0
10
1722.3507089137188
20
55.18940450749925
30
0.0
0
VERTEX
8
0
10
1733.4223487523964
20
57.9727938036052
30
0.0
0
VERTEX
8
0
10
1743.844435104793
20
60.766639733123526
30
0.0
0
VERTEX
8
0
10
1753.6249844628096
20
63.566203333733675
30
0.0
0
VERTEX
8
0
10
1762.772013318347
20
66.36674564311511
30
0.0
0
VERTEX
8
0
10
1771.293538163306
20
69.16352769894728
30
0.0
0
VERTEX
8
0
10
1779.1975754895866
20
71.95181053890964
30
0.0
0
VERTEX
8
0
10
1786.4921417890905
20
74.72685520068161
30
0.0
0
VERTEX
8
0
10
1793.185253553719
20
77.48392272194269
30
0.0
0
VERTEX
8
0
10
1799.2849272753715
20
80.21827414037232
30
0.0
0
VERTEX
8
0
10
1804.7991794459504
20
82.92517049364992
30
0.0
0
VERTEX
8
0
10
1809.736026557355
20
85.59987281945499
30
0.0
0
VERTEX
8
0
10
1814.1034851014876
20
88.23764215546692
30
0.0
0
VERTEX
8
0
10
1817.9095715702476
20
90.83373953936524
30
0.0
0
VERTEX
8
0
10
1821.162302455537
20
93.38342600882936
30
0.0
0
VERTEX
8
0
10
1823.8696942492563
20
95.88196260153872
30
0.0
0
VERTEX
8
0
10
1826.0397634433057
20
98.32461035517282
30
0.0
0
VERTEX
8
0
10
1827.6805265295868
20
100.70663030741105
30
0.0
0
VERTEX
8
0
10
1828.8
20
103.02328349593293
30
0.0
0
SEQEND
0
POLYLINE
8
0
66
1
70
0
0
VERTEX
8
0
10
0.0
20
52.23026371302116
30
0.0
0
VERTEX
8
0
10
0.0
20
52.34535746302116
30
0.0
0
VERTEX
8
0
10
0.0
20
52.674763713021164
30
0.0
0
VERTEX
8
0
10
0.0
20
53.19466996302117
30
0.0
0
VERTEX
8
0
10
0.0
20
53.881263713021156
30
0.0
0
VERTEX
8
0
10
0.0
20
54.71073246302117
30
0.0
0
VERTEX
8
0
10
0.0
20
55.65926371302116
30
0.0
0
VERTEX
8
0
10
0.0
20
56.70304496302117
30
0.0
0
VERTEX
8
0
10
0.0
20
57.81826371302117
30
0.0
0
VERTEX
8
0
10
0.0
20
58.98110746302116
30
0.0
0
VERTEX
8
0
10
0.0
20
60.16776371302116
30
0.0
0
VERTEX
8
0
10
0.0
20
61.35441996302116
30
0.0
0
VERTEX
8
0
10
0.0
20
62.51726371302116
30
0.0
0
VERTEX
8
0
10
0.0
20
63.63248246302116
30
0.0
0
VERTEX
8
0
10
0.0
20
64.67626371302116
30
0.0
0
VERTEX
8
0
10
0.0
20
65.62479496302117
30
0.0
0
VERTEX
8
0
10
0.0
20
66.45426371302116
30
0.0
0
VERTEX
8
0
10
0.0
20
67.14085746302116
30
0.0
0
VERTEX
8
0
10
0.0
20
67.66076371302117
30
0.0
0
VERTEX
8
0
10
0.0
20
67.99016996302116
30
0.0
0
VERTEX
8
0
10
0.0
20
68.10526371302116
30
0.0
0
VERTEX
8
0
10
7.2751363634978725
20
68.4475966898996
30
0.0
0
VERTEX
8
0
10
20.209939882201073
20
68.75235202537445
30
0.0
0
VERTEX
8
0
10
38.512402596867645
20
69.02169477137079
30
0.0
0
VERTEX
8
0
10
61.89051654825556
20
69.25778997981372
30
0.0
0
VERTEX
8
0
10
90.052273777123
20
69.46280270262835
30
0.0
0
VERTEX
8
0
10
122.7056663242279
20
69.63889799173974
30
0.0
0
VERTEX
8
0
10
159.55868623032845
20
69.78824089907303
30
0.0
0
VERTEX
8
0
10
200.3193255361825
20
69.91299647655325
30
0.0
0
VERTEX
8
0
10
244.69557628254796
20
70.01532977610552
30
0.0
0
VERTEX
8
0
10
292.3954305101834
20
70.09740584965493
30
0.0
0
VERTEX
8
0
10
343.12688025984653
20
70.16138974912661
30
0.0
0
VERTEX
8
0
10
396.59791757229556
20
70.2094465264456
30
0.0
0
VERTEX
8
0
10
452.51653448828836
20
70.24374123353701
30
0.0
0
VERTEX
8
0
10
510.5907230485829
20
70.26643892232592
30
0.0
0
VERTEX
8
0
10
570.5284752939372
20
70.27970464473745
30
0.0
0
VERTEX
8
0
10
632.0377832651097
20
70.28570345269668
30
0.0
0
VERTEX
8
0
10
694.8266390028583
20
70.2866003981287
30
0.0
0
VERTEX
8
0
10
758.603034547941
20
70.28456053295858
30
0.0
0
VERTEX
8
0
10
823.0749619411156
20
70.28174890911146
30
0.0
0
VERTEX
8
0
10
887.9504132231405
20
70.28033057851239
30
0.0
0
VERTEX
8
0
10
928.63006661157
20
70.28146413223139
30
0.0
0
VERTEX
8
0
10
968.1772998347105
20
70.28939900826445
30
0.0
0
VERTEX
8
0
10
1006.6385885950411
20
70.31093652892562
30
0.0
0
VERTEX
8
0
10
1044.0604085950413
20
70.3528780165289
30
0.0
0
VERTEX
8
0
10
1080.48923553719
20
70.42202479338842
30
0.0
0
VERTEX
8
0
10
1115.9715451239667
20
70.52517818181816
30
0.0
0
VERTEX
8
0
10
1150.5538130578511
20
70.66913950413223
30
0.0
0
VERTEX
8
0
10
1184.2825150413223
20
70.86071008264462
30
0.0
0
VERTEX
8
0
10
1217.2041267768595
20
71.10669123966942
30
0.0
0
VERTEX
8
0
10
1249.365123966942
20
71.41388429752067
30
0.0
0
VERTEX
8
0
10
1280.8119823140496
20
71.7890905785124
30
0.0
0
VERTEX
8
0
10
1311.5911775206612
20
72.23911140495868
30
0.0
0
VERTEX
8
0
10
1341.7491852892565
20
72.77074809917355
30
0.0
0
VERTEX
8
0
10
1371.3324813223142
20
73.39080198347106
30
0.0
0
VERTEX
8
0
10
1400.387541322314
20
74.10607438016528
30
0.0
0
VERTEX
8
0
10
1428.960840991736
20
74.92336661157026
30
0.0
0
VERTEX
8
0
10
1457.0988560330577
20
75.84947999999999
30
0.0
0
VERTEX
8
0
10
1484.8480621487602
20
76.89121586776858
30
0.0
0
VERTEX
8
0
10
1512.2549350413226
20
78.05537553719009
30
0.0
0
VERTEX
8
0
10
1539.3659504132231
20
79.3487603305785
30
0.0
0
VERTEX
8
0
10
1554.776245495349
20
80.17294324187917
30
0.0
0
VERTEX
8
0
10
1570.5812035988035
20
81.11043341164589
30
0.0
0
VERTEX
8
0
10
1586.6985810164738
20
82.15561679236185
30
0.0
0
VERTEX
8
0
10
1603.0461340412476
20
83.3028793365101
30
0.0
0
VERTEX
8
0
10
1619.5416189660127
20
84.5466069965739
30
0.0
0
VERTEX
8
0
10
1636.1027920836566
20
85.88118572503639
30
0.0
0
VERTEX
8
0
10
1652.6474096870663
20
87.30100147438066
30
0.0
0
VERTEX
8
0
10
1669.0932280691309
20
88.80044019708987
30
0.0
0
VERTEX
8
0
10
1685.3580035227365
20
90.37388784564718
30
0.0
0
VERTEX
8
0
10
1701.359492340771
20
92.01573037253574
30
0.0
0
VERTEX
8
0
10
1717.015450816123
20
93.72035373023871
30
0.0
0
VERTEX
8
0
10
1732.243635241679
20
95.48214387123922
30
0.0
0
VERTEX
8
0
10
1746.9618019103273
20
97.29548674802044
30
0.0
0
VERTEX
8
0
10
1761.0877071149553
20
99.15476831306552
30
0.0
0
VERTEX
8
0
10
1774.5391071484503
20
101.05437451885756
30
0.0
0
VERTEX
8
0
10
1787.2337583037004
20
102.98869131787976
30
0.0
0
VERTEX
8
0
10
1799.0894168735927
20
104.95210466261526
30
0.0
0
VERTEX
8
0
10
1810.023839151015
20
106.93900050554717
30
0.0
0
VERTEX
8
0
10
1819.954781428855
20
108.94376479915869
30
0.0
0
VERTEX
8
0
10
1828.8
20
110.96078349593292
30
0.0
0
VERTEX
8
0
10
1828.8000000000002
20
110.90323662093294
30
0.0
0
VERTEX
8
0
10
1828.8
20
110.73853349593291
30
0.0
0
VERTEX
8
0
10
1828.8
20
110.4785803709329
30
0.0
0
VERTEX
8
0
10
1828.8
20
110.13528349593294
30
0.0
0
VERTEX
8
0
10
1828.7999999999997
20
109.7205491209329
30
0.0
0
VERTEX
8
0
10
1828.8
20
109.24628349593291
30
0.0
0
VERTEX
8
0
10
1828.8
20
108.72439287093293
30
0.0
0
VERTEX
8
0
10
1828.8
20
108.1667834959329
30
0.0
0
VERTEX
8
0
10
1828.8
20
107.58536162093293
30
0.0
0
VERTEX
8
0
10
1828.8
20
106.99203349593292
30
0.0
0
VERTEX
8
0
10
1828.7999999999997
20
106.39870537093293
30
0.0
0
VERTEX
8
0
10
1828.8
20
105.81728349593291
30
0.0
0
VERTEX
8
0
10
1828.8
20
105.25967412093294
30
0.0
0
VERTEX
8
0
10
1828.8
20
104.73778349593292
30
0.0
0
VERTEX
8
0
10
1828.8
20
104.26351787093293
30
0.0
0
VERTEX
8
0
10
1828.8
20
103.84878349593292
30
0.0
0
VERTEX
8
0
10
1828.8
20
103.50548662093291
30
0.0
0
VERTEX
8
0
10
1828.8
20
103.24553349593293
30
0.0
0
VERTEX
8
0
10
1828.8000000000002
20
103.08083037093294
30
0.0
0
VERTEX
8
0
10
1828.8
20
103.02328349593293
30
0.0
0
SEQEND
0
ENDSEC
0
EOF
