0
SECTION
2
TABLES
0
TABLE
2
LAYER
70
1
0
LAYER
2
0
70
0
62
7
6
CONTINUOUS
0
ENDTAB
0
ENDSEC
0
SECTION
2
ENTITIES
0
POLYLINE
8
0
66
1
70
0
0
VERTEX
8
0
10
0.0
20
0.0
30
0.0
0
VERTEX
8
0
10
5.986617530801965
20
5.82551643671259E-4
30
0.0
0
VERTEX
8
0
10
12.259972620863518
20
0.0022502178584532383
30
0.0
0
VERTEX
8
0
10
18.80160077582287
20
0.004883015569998242
30
0.0
0
VERTEX
8
0
10
25.593037501318246
20
0.008360961703958574
30
0.0
0
VERTEX
8
0
10
32.61581830298788
20
0.01256407318598654
30
0.0
0
VERTEX
8
0
10
39.85147868646996
20
0.017372366941734437
30
0.0
0
VERTEX
8
0
10
47.281554157402745
20
0.022665859896854573
30
0.0
0
VERTEX
8
0
10
54.88758022142442
20
0.02832456897699925
30
0.0
0
VERTEX
8
0
10
62.65109238417323
20
0.03422851110782077
30
0.0
0
VERTEX
8
0
10
70.5536261512874
20
0.040257703214971456
30
0.0
0
VERTEX
8
0
10
78.57671702840511
20
0.04629216222410358
30
0.0
0
VERTEX
8
0
10
86.70190052116462
20
0.05221190506086945
30
0.0
0
VERTEX
8
0
10
94.91071213520414
20
0.05789694865092141
30
0.0
0
VERTEX
8
0
10
103.18468737616189
20
0.06322730991991171
30
0.0
0
VERTEX
8
0
10
111.50536174967607
20
0.06808300579349268
30
0.0
0
VERTEX
8
0
10
119.85427076138495
20
0.07234405319731663
30
0.0
0
VERTEX
8
0
10
128.21294991692673
20
0.07589046905703586
30
0.0
0
VERTEX
8
0
10
136.56293472193957
20
0.07860227029830266
30
0.0
0
VERTEX
8
0
10
144.8857606820618
20
0.08035947384676934
30
0.0
0
VERTEX
8
0
10
153.16296330293153
20
0.0810420966280882
30
0.0
0
VERTEX
8
0
10
161.37607809018704
20
0.08053015556791154
30
0.0
0
VERTEX
8
0
10
169.50664054946654
20
0.07870366759189171
30
0.0
0
VERTEX
8
0
10
177.5361861864083
20
0.07544264962568092
30
0.0
0
VERTEX
8
0
10
185.44625050665041
20
0.07062711859493159
30
0.0
0
VERTEX
8
0
10
193.21836901583123
20
0.06413709142529593
30
0.0
0
VERTEX
8
0
10
194.1334954369141
20
0.08434276056283414
30
0.0
0
VERTEX
8
0
10
195.06337657196178
20
0.1472422505063543
30
0.0
0
VERTEX
8
0
10
196.003577156655
20
0.2536569407009822
30
0.0
0
VERTEX
8
0
10
196.9496619266746
20
0.40440821059184273
30
0.0
0
VERTEX
8
0
10
197.8971956177013
20
0.6003174396240631
30
0.0
0
VERTEX
8
0
10
198.84174296541596
20
0.842206007242769
30
0.0
0
VERTEX
8
0
10
199.7788687054993
20
1.1308952928930855
30
0.0
0
VERTEX
8
0
10
200.70413757363207
20
1.4672066760201388
30
0.0
0
VERTEX
8
0
10
201.61311430549515
20
1.8519615360690547
30
0.0
0
VERTEX
8
0
10
202.50136363676916
20
2.2859812524849565
30
0.0
0
VERTEX
8
0
10
203.36445030313507
20
2.7700872047129743
30
0.0
0
VERTEX
8
0
10
204.19793904027352
20
3.305100772198233
30
0.0
0
VERTEX
8
0
10
204.99739458386532
20
3.891843334385856
30
0.0
0
VERTEX
8
0
10
205.7583816695913
20
4.531136270720971
30
0.0
0
VERTEX
8
0
10
206.47646503313214
20
5.2238009606487035
30
0.0
0
VERTEX
8
0
10
207.14720941016876
20
5.970658783614176
30
0.0
0
VERTEX
8
0
10
207.7661795363818
20
6.772531119062519
30
0.0
0
VERTEX
8
0
10
208.32894014745207
20
7.6302393464388585
30
0.0
0
VERTEX
8
0
10
208.83105597906047
20
8.544604845188319
30
0.0
0
VERTEX
8
0
10
209.26809176688755
20
9.516448994756026
30
0.0
0
VERTEX
8
0
10
209.6356122466143
20
10.5465931745871
30
0.0
0
VERTEX
8
0
10
209.9291821539214
20
11.635858764126672
30
0.0
0
VERTEX
8
0
10
210.14436622448966
20
12.785067142819873
30
0.0
0
VERTEX
8
0
10
210.27672919399987
20
13.99503969011182
30
0.0
0
VERTEX
8
0
10
210.32183579813275
20
15.266597785447644
30
0.0
0
VERTEX
8
0
10
210.27453467586352
20
16.601019092237124
30
0.0
0
VERTEX
8
0
10
210.12854399704008
20
17.930579630689984
30
0.0
0
VERTEX
8
0
10
209.87773279365297
20
19.254023137670167
30
0.0
0
VERTEX
8
0
10
209.5159700976926
20
20.570093350041606
30
0.0
0
VERTEX
8
0
10
209.03712494114953
20
21.877534004668252
30
0.0
0
VERTEX
8
0
10
208.43506635601412
20
23.175088838414027
30
0.0
0
VERTEX
8
0
10
207.70366337427686
20
24.461501588142877
30
0.0
0
VERTEX
8
0
10
206.83678502792816
20
25.73551599071876
30
0.0
0
VERTEX
8
0
10
205.8283003489586
20
26.99587578300559
30
0.0
0
VERTEX
8
0
10
204.67207836935867
20
28.24132470186732
30
0.0
0
VERTEX
8
0
10
203.36198812111866
20
29.47060648416789
30
0.0
0
VERTEX
8
0
10
201.89189863622917
20
30.682464866771227
30
0.0
0
VERTEX
8
0
10
200.25567894668063
20
31.87564358654129
30
0.0
0
VERTEX
8
0
10
198.44719808446348
20
33.048886380342005
30
0.0
0
VERTEX
8
0
10
196.46032508156827
20
34.200936985037316
30
0.0
0
VERTEX
8
0
10
194.28892896998536
20
35.33053913749115
30
0.0
0
VERTEX
8
0
10
191.92687878170528
20
36.43643657456746
30
0.0
0
VERTEX
8
0
10
189.36804354871845
20
37.517373033130184
30
0.0
0
VERTEX
8
0
10
186.60629230301544
20
38.57209225004325
30
0.0
0
VERTEX
8
0
10
183.6354940765866
20
39.599337962170615
30
0.0
0
VERTEX
8
0
10
180.44951790142235
20
40.597853906376216
30
0.0
0
VERTEX
8
0
10
177.04223280951334
20
41.56638381952398
30
0.0
0
VERTEX
8
0
10
173.40750783284986
20
42.50367143847785
30
0.0
0
VERTEX
8
0
10
169.53921200342248
20
43.408460500101775
30
0.0
0
VERTEX
8
0
10
165.4312143532216
20
44.279494741259676
30
0.0
0
VERTEX
8
0
10
161.57491216998494
20
45.03153396526341
30
0.0
0
VERTEX
8
0
10
157.52094594269278
20
45.76937267292613
30
0.0
0
VERTEX
8
0
10
153.2650876511035
20
46.49160683446099
30
0.0
0
VERTEX
8
0
10
148.8031092749755
20
47.19683242008114
30
0.0
0
VERTEX
8
0
10
144.1307827940673
20
47.88364539999972
30
0.0
0
VERTEX
8
0
10
139.24388018813718
20
48.55064174442987
30
0.0
0
VERTEX
8
0
10
134.13817343694365
20
49.19641742358476
30
0.0
0
VERTEX
8
0
10
128.80943452024505
20
49.81956840767752
30
0.0
0
VERTEX
8
0
10
123.25343541779985
20
50.41869066692132
30
0.0
0
VERTEX
8
0
10
117.46594810936642
20
50.992380171529284
30
0.0
0
VERTEX
8
0
10
111.44274457470317
20
51.53923289171456
30
0.0
0
VERTEX
8
0
10
105.17959679356855
20
52.05784479769031
30
0.0
0
VERTEX
8
0
10
98.67227674572095
20
52.546811859669674
30
0.0
0
VERTEX
8
0
10
91.91655641091879
20
53.004730047865806
30
0.0
0
VERTEX
8
0
10
84.90820776892048
20
53.430195332491834
30
0.0
0
VERTEX
8
0
10
77.64300279948442
20
53.82180368376093
30
0.0
0
VERTEX
8
0
10
70.11671348236904
20
54.178151071886234
30
0.0
0
VERTEX
8
0
10
62.32511179733276
20
54.49783346708089
30
0.0
0
VERTEX
8
0
10
54.263969724134064
20
54.77944683955804
30
0.0
0
VERTEX
8
0
10
45.929059242531196
20
55.02158715953084
30
0.0
0
VERTEX
8
0
10
37.316152332282655
20
55.22285039721243
30
0.0
0
VERTEX
8
0
10
28.42102097314685
20
55.38183252281598
30
0.0
0
VERTEX
8
0
10
19.239437144882196
20
55.497129506554614
30
0.0
0
VERTEX
8
0
10
9.767172827247109
20
55.567337318641485
30
0.0
0
VERTEX
8
0
10
0.0
20
55.59105192928974
30
0.0
0
SEQEND
0
POLYLINE
8
0
66
1
70
0
0
VERTEX
8
0
10
0.0
20
0.0
30
0.0
0
VERTEX
8
0
10
-5.986617530801965
20
5.82551643671259E-4
30
0.0
0
VERTEX
8
0
10
-12.259972620863518
20
0.0022502178584532383
30
0.0
0
VERTEX
8
0
10
-18.80160077582287
20
0.004883015569998242
30
0.0
0
VERTEX
8
0
10
-25.593037501318246
20
0.008360961703958574
30
0.0
0
VERTEX
8
0
10
-32.61581830298788
20
0.01256407318598654
30
0.0
0
VERTEX
8
0
10
-39.85147868646996
20
0.017372366941734437
30
0.0
0
VERTEX
8
0
10
-47.281554157402745
20
0.022665859896854573
30
0.0
0
VERTEX
8
0
10
-54.88758022142442
20
0.02832456897699925
30
0.0
0
VERTEX
8
0
10
-62.65109238417323
20
0.03422851110782077
30
0.0
0
VERTEX
8
0
10
-70.5536261512874
20
0.040257703214971456
30
0.0
0
VERTEX
8
0
10
-78.57671702840511
20
0.04629216222410358
30
0.0
0
VERTEX
8
0
10
-86.70190052116462
20
0.05221190506086945
30
0.0
0
VERTEX
8
0
10
-94.91071213520414
20
0.05789694865092141
30
0.0
0
VERTEX
8
0
10
-103.18468737616189
20
0.06322730991991171
30
0.0
0
VERTEX
8
0
10
-111.50536174967607
20
0.06808300579349268
30
0.0
0
VERTEX
8
0
10
-119.85427076138495
20
0.07234405319731663
30
0.0
0
VERTEX
8
0
10
-128.21294991692673
20
0.07589046905703586
30
0.0
0
VERTEX
8
0
10
-136.56293472193957
20
0.07860227029830266
30
0.0
0
VERTEX
8
0
10
-144.8857606820618
20
0.08035947384676934
30
0.0
0
VERTEX
8
0
10
-153.16296330293153
20
0.0810420966280882
30
0.0
0
VERTEX
8
0
10
-161.37607809018704
20
0.08053015556791154
30
0.0
0
VERTEX
8
0
10
-169.50664054946654
20
0.07870366759189171
30
0.0
0
VERTEX
8
0
10
-177.5361861864083
20
0.07544264962568092
30
0.0
0
VERTEX
8
0
10
-185.44625050665041
20
0.07062711859493159
30
0.0
0
VERTEX
8
0
10
-193.21836901583123
20
0.06413709142529593
30
0.0
0
VERTEX
8
0
10
-194.1334954369141
20
0.08434276056283414
30
0.0
0
VERTEX
8
0
10
-195.06337657196178
20
0.1472422505063543
30
0.0
0
VERTEX
8
0
10
-196.003577156655
20
0.2536569407009822
30
0.0
0
VERTEX
8
0
10
-196.9496619266746
20
0.40440821059184273
30
0.0
0
VERTEX
8
0
10
-197.8971956177013
20
0.6003174396240631
30
0.0
0
VERTEX
8
0
10
-198.84174296541596
20
0.842206007242769
30
0.0
0
VERTEX
8
0
10
-199.7788687054993
20
1.1308952928930855
30
0.0
0
VERTEX
8
0
10
-200.70413757363207
20
1.4672066760201388
30
0.0
0
VERTEX
8
0
10
-201.61311430549515
20
1.8519615360690547
30
0.0
0
VERTEX
8
0
10
-202.50136363676916
20
2.2859812524849565
30
0.0
0
VERTEX
8
0
10
-203.36445030313507
20
2.7700872047129743
30
0.0
0
VERTEX
8
0
10
-204.19793904027352
20
3.305100772198233
30
0.0
0
VERTEX
8
0
10
-204.99739458386532
20
3.891843334385856
30
0.0
0
VERTEX
8
0
10
-205.7583816695913
20
4.531136270720971
30
0.0
0
VERTEX
8
0
10
-206.47646503313214
20
5.2238009606487035
30
0.0
0
VERTEX
8
0
10
-207.14720941016876
20
5.970658783614176
30
0.0
0
VERTEX
8
0
10
-207.7661795363818
20
6.772531119062519
30
0.0
0
VERTEX
8
0
10
-208.32894014745207
20
7.6302393464388585
30
0.0
0
VERTEX
8
0
10
-208.83105597906047
20
8.544604845188319
30
0.0
0
VERTEX
8
0
10
-209.26809176688755
20
9.516448994756026
30
0.0
0
VERTEX
8
0
10
-209.6356122466143
20
10.5465931745871
30
0.0
0
VERTEX
8
0
10
-209.9291821539214
20
11.635858764126672
30
0.0
0
VERTEX
8
0
10
-210.14436622448966
20
12.785067142819873
30
0.0
0
VERTEX
8
0
10
-210.27672919399987
20
13.99503969011182
30
0.0
0
VERTEX
8
0
10
-210.32183579813275
20
15.266597785447644
30
0.0
0
VERTEX
8
0
10
-210.27453467586352
20
16.601019092237124
30
0.0
0
VERTEX
8
0
10
-210.12854399704008
20
17.930579630689984
30
0.0
0
VERTEX
8
0
10
-209.87773279365297
20
19.254023137670167
30
0.0
0
VERTEX
8
0
10
-209.5159700976926
20
20.570093350041606
30
0.0
0
VERTEX
8
0
10
-209.03712494114953
20
21.877534004668252
30
0.0
0
VERTEX
8
0
10
-208.43506635601412
20
23.175088838414027
30
0.0
0
VERTEX
8
0
10
-207.70366337427686
20
24.461501588142877
30
0.0
0
VERTEX
8
0
10
-206.83678502792816
20
25.73551599071876
30
0.0
0
VERTEX
8
0
10
-205.8283003489586
20
26.99587578300559
30
0.0
0
VERTEX
8
0
10
-204.67207836935867
20
28.24132470186732
30
0.0
0
VERTEX
8
0
10
-203.36198812111866
20
29.47060648416789
30
0.0
0
VERTEX
8
0
10
-201.89189863622917
20
30.682464866771227
30
0.0
0
VERTEX
8
0
10
-200.25567894668063
20
31.87564358654129
30
0.0
0
VERTEX
8
0
10
-198.44719808446348
20
33.048886380342005
30
0.0
0
VERTEX
8
0
10
-196.46032508156827
20
34.200936985037316
30
0.0
0
VERTEX
8
0
10
-194.28892896998536
20
35.33053913749115
30
0.0
0
VERTEX
8
0
10
-191.92687878170528
20
36.43643657456746
30
0.0
0
VERTEX
8
0
10
-189.36804354871845
20
37.517373033130184
30
0.0
0
VERTEX
8
0
10
-186.60629230301544
20
38.57209225004325
30
0.0
0
VERTEX
8
0
10
-183.6354940765866
20
39.599337962170615
30
0.0
0
VERTEX
8
0
10
-180.44951790142235
20
40.597853906376216
30
0.0
0
VERTEX
8
0
10
-177.04223280951334
20
41.56638381952398
30
0.0
0
VERTEX
8
0
10
-173.40750783284986
20
42.50367143847785
30
0.0
0
VERTEX
8
0
10
-169.53921200342248
20
43.408460500101775
30
0.0
0
VERTEX
8
0
10
-165.4312143532216
20
44.279494741259676
30
0.0
0
VERTEX
8
0
10
-161.57491216998494
20
45.03153396526341
30
0.0
0
VERTEX
8
0
10
-157.52094594269278
20
45.76937267292613
30
0.0
0
VERTEX
8
0
10
-153.2650876511035
20
46.49160683446099
30
0.0
0
VERTEX
8
0
10
-148.8031092749755
20
47.19683242008114
30
0.0
0
VERTEX
8
0
10
-144.1307827940673
20
47.88364539999972
30
0.0
0
VERTEX
8
0
10
-139.24388018813718
20
48.55064174442987
30
0.0
0
VERTEX
8
0
10
-134.13817343694365
20
49.19641742358476
30
0.0
0
VERTEX
8
0
10
-128.80943452024505
20
49.81956840767752
30
0.0
0
VERTEX
8
0
10
-123.25343541779985
20
50.41869066692132
30
0.0
0
VERTEX
8
0
10
-117.46594810936642
20
50.992380171529284
30
0.0
0
VERTEX
8
0
10
-111.44274457470317
20
51.53923289171456
30
0.0
0
VERTEX
8
0
10
-105.17959679356855
20
52.05784479769031
30
0.0
0
VERTEX
8
0
10
-98.67227674572095
20
52.546811859669674
30
0.0
0
VERTEX
8
0
10
-91.91655641091879
20
53.004730047865806
30
0.0
0
VERTEX
8
0
10
-84.90820776892048
20
53.430195332491834
30
0.0
0
VERTEX
8
0
10
-77.64300279948442
20
53.82180368376093
30
0.0
0
VERTEX
8
0
10
-70.11671348236904
20
54.178151071886234
30
0.0
0
VERTEX
8
0
10
-62.32511179733276
20
54.49783346708089
30
0.0
0
VERTEX
8
0
10
-54.263969724134064
20
54.77944683955804
30
0.0
0
VERTEX
8
0
10
-45.929059242531196
20
55.02158715953084
30
0.0
0
VERTEX
8
0
10
-37.316152332282655
20
55.22285039721243
30
0.0
0
VERTEX
8
0
10
-28.42102097314685
20
55.38183252281598
30
0.0
0
VERTEX
8
0
10
-19.239437144882196
20
55.497129506554614
30
0.0
0
VERTEX
8
0
10
-9.767172827247109
20
55.567337318641485
30
0.0
0
VERTEX
8
0
10
0.0
20
55.59105192928974
30
0.0
0
SEQEND
0
ENDSEC
0
EOF
