0
SECTION
2
TABLES
0
TABLE
2
LAYER
70
1
0
LAYER
2
0
70
0
62
7
6
CONTINUOUS
0
ENDTAB
0
ENDSEC
0
SECTION
2
ENTITIES
0
POLYLINE
8
0
66
1
70
0
0
VERTEX
8
0
10
0.0
20
0.0
30
0.0
0
VERTEX
8
0
10
7.409687103392416
20
-0.006477252490971221
30
0.0
0
VERTEX
8
0
10
15.218929525171612
20
-0.025771312244626816
30
0.0
0
VERTEX
8
0
10
23.40096411087046
20
-0.057675632682079675
30
0.0
0
VERTEX
8
0
10
31.92902770602185
20
-0.10198366722444273
30
0.0
0
VERTEX
8
0
10
40.77635715615867
20
-0.15848886929282885
30
0.0
0
VERTEX
8
0
10
49.91618930681376
20
-0.2269846923083509
30
0.0
0
VERTEX
8
0
10
59.32176100352005
20
-0.3072645896921219
30
0.0
0
VERTEX
8
0
10
68.96630909181039
20
-0.39912201486525456
30
0.0
0
VERTEX
8
0
10
78.82307041721765
20
-0.5023504212488618
30
0.0
0
VERTEX
8
0
10
88.86528182527474
20
-0.6167432622640568
30
0.0
0
VERTEX
8
0
10
99.06618016151455
20
-0.742093991331952
30
0.0
0
VERTEX
8
0
10
109.3990022714699
20
-0.8781960618736606
30
0.0
0
VERTEX
8
0
10
119.8369850006737
20
-1.0248429273102955
30
0.0
0
VERTEX
8
0
10
130.35336519465886
20
-1.1818280410629698
30
0.0
0
VERTEX
8
0
10
140.92137969895822
20
-1.3489448565527957
30
0.0
0
VERTEX
8
0
10
151.51426535910468
20
-1.5259868272008867
30
0.0
0
VERTEX
8
0
10
162.10525902063114
20
-1.712747406428356
30
0.0
0
VERTEX
8
0
10
172.6675975290704
20
-1.9090200476563148
30
0.0
0
VERTEX
8
0
10
183.17451772995543
20
-2.1145982043058784
30
0.0
0
VERTEX
8
0
10
193.59925646881905
20
-2.3292753297981585
30
0.0
0
VERTEX
8
0
10
203.91505059119413
20
-2.552844877554266
30
0.0
0
VERTEX
8
0
10
214.09513694261364
20
-2.785100300995318
30
0.0
0
VERTEX
8
0
10
224.11275236861042
20
-3.0258350535424245
30
0.0
0
VERTEX
8
0
10
233.9411337147173
20
-3.2748425886166994
30
0.0
0
VERTEX
8
0
10
243.55351782646719
20
-3.531916359639255
30
0.0
0
VERTEX
8
0
10
244.34506793952593
20
-3.525199959963805
30
0.0
0
VERTEX
8
0
10
245.16010909650007
20
-3.4617037286958623
30
0.0
0
VERTEX
8
0
10
245.99389174085573
20
-3.3405889355585785
30
0.0
0
VERTEX
8
0
10
246.84166631605908
20
-3.1610168502751086
30
0.0
0
VERTEX
8
0
10
247.6986832655765
20
-2.922148742568603
30
0.0
0
VERTEX
8
0
10
248.560193032874
20
-2.6231458821622144
30
0.0
0
VERTEX
8
0
10
249.4214460614179
20
-2.263169538779095
30
0.0
0
VERTEX
8
0
10
250.2776927946743
20
-1.8413809821423988
30
0.0
0
VERTEX
8
0
10
251.12418367610942
20
-1.356941481975276
30
0.0
0
VERTEX
8
0
10
251.95616914918944
20
-0.8090123080008843
30
0.0
0
VERTEX
8
0
10
252.76889965738067
20
-0.19675472994236887
30
0.0
0
VERTEX
8
0
10
253.5576256441492
20
0.48066998247711407
30
0.0
0
VERTEX
8
0
10
254.31759755296125
20
1.2241005595344123
30
0.0
0
VERTEX
8
0
10
255.04406582728302
20
2.0343757315063744
30
0.0
0
VERTEX
8
0
10
255.73228091058067
20
2.912334228669846
30
0.0
0
VERTEX
8
0
10
256.37749324632046
20
3.858814781301671
30
0.0
0
VERTEX
8
0
10
256.97495327796855
20
4.874656119678707
30
0.0
0
VERTEX
8
0
10
257.51991144899114
20
5.960696974077795
30
0.0
0
VERTEX
8
0
10
258.0076182028545
20
7.117776074775785
30
0.0
0
VERTEX
8
0
10
258.43332398302465
20
8.346732152049523
30
0.0
0
VERTEX
8
0
10
258.79227923296787
20
9.648403936175853
30
0.0
0
VERTEX
8
0
10
259.07973439615046
20
11.023630157431622
30
0.0
0
VERTEX
8
0
10
259.29093991603855
20
12.47324954609369
30
0.0
0
VERTEX
8
0
10
259.4211462360983
20
13.998100832438896
30
0.0
0
VERTEX
8
0
10
259.46560379979593
20
15.599022746744085
30
0.0
0
VERTEX
8
0
10
259.4063105541531
20
17.3596309668048
30
0.0
0
VERTEX
8
0
10
259.22354508957056
20
19.105450355729218
30
0.0
0
VERTEX
8
0
10
258.9099788145847
20
20.835819979780087
30
0.0
0
VERTEX
8
0
10
258.45828313773177
20
22.55007890522014
30
0.0
0
VERTEX
8
0
10
257.86112946754804
20
24.24756619831211
30
0.0
0
VERTEX
8
0
10
257.1111892125699
20
25.92762092531874
30
0.0
0
VERTEX
8
0
10
256.20113378133345
20
27.589582152502746
30
0.0
0
VERTEX
8
0
10
255.12363458237508
20
29.232788946126913
30
0.0
0
VERTEX
8
0
10
253.87136302423107
20
30.85658037245395
30
0.0
0
VERTEX
8
0
10
252.4369905154378
20
32.4602954977466
30
0.0
0
VERTEX
8
0
10
250.8131884645313
20
34.04327338826759
30
0.0
0
VERTEX
8
0
10
248.99262828004808
20
35.60485311027967
30
0.0
0
VERTEX
8
0
10
246.96798137052437
20
37.14437373004558
30
0.0
0
VERTEX
8
0
10
244.73191914449643
20
38.66117431382805
30
0.0
0
VERTEX
8
0
10
242.27711301050053
20
40.15459392788982
30
0.0
0
VERTEX
8
0
10
239.59623437707305
20
41.62397163849363
30
0.0
0
VERTEX
8
0
10
236.68195465275016
20
43.06864651190221
30
0.0
0
VERTEX
8
0
10
233.5269452460682
20
44.4879576143783
30
0.0
0
VERTEX
8
0
10
230.1238775655635
20
45.88124401218464
30
0.0
0
VERTEX
8
0
10
226.46542301977223
20
47.24784477158398
30
0.0
0
VERTEX
8
0
10
222.54425301723077
20
48.587098958839036
30
0.0
0
VERTEX
8
0
10
218.35303896647537
20
49.89834564021257
30
0.0
0
VERTEX
8
0
10
213.88445227604234
20
51.180923881967296
30
0.0
0
VERTEX
8
0
10
209.13116435446796
20
52.43417275036598
30
0.0
0
VERTEX
8
0
10
204.08584661028843
20
53.657431311671324
30
0.0
0
VERTEX
8
0
10
199.3284814484119
20
54.72760095637049
30
0.0
0
VERTEX
8
0
10
194.32726609216178
20
55.77950416264291
30
0.0
0
VERTEX
8
0
10
189.0769846027332
20
56.810977727582156
30
0.0
0
VERTEX
8
0
10
183.57242104132126
20
57.81985844828175
30
0.0
0
VERTEX
8
0
10
177.80835946912103
20
58.80398312183523
30
0.0
0
VERTEX
8
0
10
171.77958394732755
20
59.761188545336125
30
0.0
0
VERTEX
8
0
10
165.48087853713605
20
60.68931151587797
30
0.0
0
VERTEX
8
0
10
158.9070272997414
20
61.586188830554306
30
0.0
0
VERTEX
8
0
10
152.0528142963388
20
62.449657286458645
30
0.0
0
VERTEX
8
0
10
144.9130235881233
20
63.27755368068455
30
0.0
0
VERTEX
8
0
10
137.48243923628996
20
64.06771481032553
30
0.0
0
VERTEX
8
0
10
129.75584530203395
20
64.81797747247512
30
0.0
0
VERTEX
8
0
10
121.72802584655028
20
65.52617846422689
30
0.0
0
VERTEX
8
0
10
113.39376493103404
20
66.19015458267432
30
0.0
0
VERTEX
8
0
10
104.74784661668032
20
66.80774262491097
30
0.0
0
VERTEX
8
0
10
95.78505496468422
20
67.3767793880304
30
0.0
0
VERTEX
8
0
10
86.50017403624078
20
67.89510166912608
30
0.0
0
VERTEX
8
0
10
76.88798789254514
20
68.36054626529162
30
0.0
0
VERTEX
8
0
10
66.94328059479244
20
68.77094997362049
30
0.0
0
VERTEX
8
0
10
56.660836204177556
20
69.12414959120625
30
0.0
0
VERTEX
8
0
10
46.03543878189569
20
69.41798191514243
30
0.0
0
VERTEX
8
0
10
35.061872389141925
20
69.65028374252257
30
0.0
0
VERTEX
8
0
10
23.734921087111328
20
69.8188918704402
30
0.0
0
VERTEX
8
0
10
12.049368936998995
20
69.92164309598887
30
0.0
0
VERTEX
8
0
10
0.0
20
69.95637421626208
30
0.0
0
SEQEND
0
POLYLINE
8
0
66
1
70
0
0
VERTEX
8
0
10
0.0
20
0.0
30
0.0
0
VERTEX
8
0
10
-7.409687103392416
20
-0.006477252490971221
30
0.0
0
VERTEX
8
0
10
-15.218929525171612
20
-0.025771312244626816
30
0.0
0
VERTEX
8
0
10
-23.40096411087046
20
-0.057675632682079675
30
0.0
0
VERTEX
8
0
10
-31.92902770602185
20
-0.10198366722444273
30
0.0
0
VERTEX
8
0
10
-40.77635715615867
20
-0.15848886929282885
30
0.0
0
VERTEX
8
0
10
-49.91618930681376
20
-0.2269846923083509
30
0.0
0
VERTEX
8
0
10
-59.32176100352005
20
-0.3072645896921219
30
0.0
0
VERTEX
8
0
10
-68.96630909181039
20
-0.39912201486525456
30
0.0
0
VERTEX
8
0
10
-78.82307041721765
20
-0.5023504212488618
30
0.0
0
VERTEX
8
0
10
-88.86528182527474
20
-0.6167432622640568
30
0.0
0
VERTEX
8
0
10
-99.06618016151455
20
-0.742093991331952
30
0.0
0
VERTEX
8
0
10
-109.3990022714699
20
-0.8781960618736606
30
0.0
0
VERTEX
8
0
10
-119.8369850006737
20
-1.0248429273102955
30
0.0
0
VERTEX
8
0
10
-130.35336519465886
20
-1.1818280410629698
30
0.0
0
VERTEX
8
0
10
-140.92137969895822
20
-1.3489448565527957
30
0.0
0
VERTEX
8
0
10
-151.51426535910468
20
-1.5259868272008867
30
0.0
0
VERTEX
8
0
10
-162.10525902063114
20
-1.712747406428356
30
0.0
0
VERTEX
8
0
10
-172.6675975290704
20
-1.9090200476563148
30
0.0
0
VERTEX
8
0
10
-183.17451772995543
20
-2.1145982043058784
30
0.0
0
VERTEX
8
0
10
-193.59925646881905
20
-2.3292753297981585
30
0.0
0
VERTEX
8
0
10
-203.91505059119413
20
-2.552844877554266
30
0.0
0
VERTEX
8
0
10
-214.09513694261364
20
-2.785100300995318
30
0.0
0
VERTEX
8
0
10
-224.11275236861042
20
-3.0258350535424245
30
0.0
0
VERTEX
8
0
10
-233.9411337147173
20
-3.2748425886166994
30
0.0
0
VERTEX
8
0
10
-243.55351782646719
20
-3.531916359639255
30
0.0
0
VERTEX
8
0
10
-244.34506793952593
20
-3.525199959963805
30
0.0
0
VERTEX
8
0
10
-245.16010909650007
20
-3.4617037286958623
30
0.0
0
VERTEX
8
0
10
-245.99389174085573
20
-3.3405889355585785
30
0.0
0
VERTEX
8
0
10
-246.84166631605908
20
-3.1610168502751086
30
0.0
0
VERTEX
8
0
10
-247.6986832655765
20
-2.922148742568603
30
0.0
0
VERTEX
8
0
10
-248.560193032874
20
-2.6231458821622144
30
0.0
0
VERTEX
8
0
10
-249.4214460614179
20
-2.263169538779095
30
0.0
0
VERTEX
8
0
10
-250.2776927946743
20
-1.8413809821423988
30
0.0
0
VERTEX
8
0
10
-251.12418367610942
20
-1.356941481975276
30
0.0
0
VERTEX
8
0
10
-251.95616914918944
20
-0.8090123080008843
30
0.0
0
VERTEX
8
0
10
-252.76889965738067
20
-0.19675472994236887
30
0.0
0
VERTEX
8
0
10
-253.5576256441492
20
0.48066998247711407
30
0.0
0
VERTEX
8
0
10
-254.31759755296125
20
1.2241005595344123
30
0.0
0
VERTEX
8
0
10
-255.04406582728302
20
2.0343757315063744
30
0.0
0
VERTEX
8
0
10
-255.73228091058067
20
2.912334228669846
30
0.0
0
VERTEX
8
0
10
-256.37749324632046
20
3.858814781301671
30
0.0
0
VERTEX
8
0
10
-256.97495327796855
20
4.874656119678707
30
0.0
0
VERTEX
8
0
10
-257.51991144899114
20
5.960696974077795
30
0.0
0
VERTEX
8
0
10
-258.0076182028545
20
7.117776074775785
30
0.0
0
VERTEX
8
0
10
-258.43332398302465
20
8.346732152049523
30
0.0
0
VERTEX
8
0
10
-258.79227923296787
20
9.648403936175853
30
0.0
0
VERTEX
8
0
10
-259.07973439615046
20
11.023630157431622
30
0.0
0
VERTEX
8
0
10
-259.29093991603855
20
12.47324954609369
30
0.0
0
VERTEX
8
0
10
-259.4211462360983
20
13.998100832438896
30
0.0
0
VERTEX
8
0
10
-259.46560379979593
20
15.599022746744085
30
0.0
0
VERTEX
8
0
10
-259.4063105541531
20
17.3596309668048
30
0.0
0
VERTEX
8
0
10
-259.22354508957056
20
19.105450355729218
30
0.0
0
VERTEX
8
0
10
-258.9099788145847
20
20.835819979780087
30
0.0
0
VERTEX
8
0
10
-258.45828313773177
20
22.55007890522014
30
0.0
0
VERTEX
8
0
10
-257.86112946754804
20
24.24756619831211
30
0.0
0
VERTEX
8
0
10
-257.1111892125699
20
25.92762092531874
30
0.0
0
VERTEX
8
0
10
-256.20113378133345
20
27.589582152502746
30
0.0
0
VERTEX
8
0
10
-255.12363458237508
20
29.232788946126913
30
0.0
0
VERTEX
8
0
10
-253.87136302423107
20
30.85658037245395
30
0.0
0
VERTEX
8
0
10
-252.4369905154378
20
32.4602954977466
30
0.0
0
VERTEX
8
0
10
-250.8131884645313
20
34.04327338826759
30
0.0
0
VERTEX
8
0
10
-248.99262828004808
20
35.60485311027967
30
0.0
0
VERTEX
8
0
10
-246.96798137052437
20
37.14437373004558
30
0.0
0
VERTEX
8
0
10
-244.73191914449643
20
38.66117431382805
30
0.0
0
VERTEX
8
0
10
-242.27711301050053
20
40.15459392788982
30
0.0
0
VERTEX
8
0
10
-239.59623437707305
20
41.62397163849363
30
0.0
0
VERTEX
8
0
10
-236.68195465275016
20
43.06864651190221
30
0.0
0
VERTEX
8
0
10
-233.5269452460682
20
44.4879576143783
30
0.0
0
VERTEX
8
0
10
-230.1238775655635
20
45.88124401218464
30
0.0
0
VERTEX
8
0
10
-226.46542301977223
20
47.24784477158398
30
0.0
0
VERTEX
8
0
10
-222.54425301723077
20
48.587098958839036
30
0.0
0
VERTEX
8
0
10
-218.35303896647537
20
49.89834564021257
30
0.0
0
VERTEX
8
0
10
-213.88445227604234
20
51.180923881967296
30
0.0
0
VERTEX
8
0
10
-209.13116435446796
20
52.43417275036598
30
0.0
0
VERTEX
8
0
10
-204.08584661028843
20
53.657431311671324
30
0.0
0
VERTEX
8
0
10
-199.3284814484119
20
54.72760095637049
30
0.0
0
VERTEX
8
0
10
-194.32726609216178
20
55.77950416264291
30
0.0
0
VERTEX
8
0
10
-189.0769846027332
20
56.810977727582156
30
0.0
0
VERTEX
8
0
10
-183.57242104132126
20
57.81985844828175
30
0.0
0
VERTEX
8
0
10
-177.80835946912103
20
58.80398312183523
30
0.0
0
VERTEX
8
0
10
-171.77958394732755
20
59.761188545336125
30
0.0
0
VERTEX
8
0
10
-165.48087853713605
20
60.68931151587797
30
0.0
0
VERTEX
8
0
10
-158.9070272997414
20
61.586188830554306
30
0.0
0
VERTEX
8
0
10
-152.0528142963388
20
62.449657286458645
30
0.0
0
VERTEX
8
0
10
-144.9130235881233
20
63.27755368068455
30
0.0
0
VERTEX
8
0
10
-137.48243923628996
20
64.06771481032553
30
0.0
0
VERTEX
8
0
10
-129.75584530203395
20
64.81797747247512
30
0.0
0
VERTEX
8
0
10
-121.72802584655028
20
65.52617846422689
30
0.0
0
VERTEX
8
0
10
-113.39376493103404
20
66.19015458267432
30
0.0
0
VERTEX
8
0
10
-104.74784661668032
20
66.80774262491097
30
0.0
0
VERTEX
8
0
10
-95.78505496468422
20
67.3767793880304
30
0.0
0
VERTEX
8
0
10
-86.50017403624078
20
67.89510166912608
30
0.0
0
VERTEX
8
0
10
-76.88798789254514
20
68.36054626529162
30
0.0
0
VERTEX
8
0
10
-66.94328059479244
20
68.77094997362049
30
0.0
0
VERTEX
8
0
10
-56.660836204177556
20
69.12414959120625
30
0.0
0
VERTEX
8
0
10
-46.03543878189569
20
69.41798191514243
30
0.0
0
VERTEX
8
0
10
-35.061872389141925
20
69.65028374252257
30
0.0
0
VERTEX
8
0
10
-23.734921087111328
20
69.8188918704402
30
0.0
0
VERTEX
8
0
10
-12.049368936998995
20
69.92164309598887
30
0.0
0
VERTEX
8
0
10
0.0
20
69.95637421626208
30
0.0
0
SEQEND
0
ENDSEC
0
EOF
