0
SECTION
2
TABLES
0
TABLE
2
LAYER
70
1
0
LAYER
2
0
70
0
62
7
6
CONTINUOUS
0
ENDTAB
0
ENDSEC
0
SECTION
2
ENTITIES
0
POLYLINE
8
0
66
1
70
0
0
VERTEX
8
0
10
0.0
20
0.0
30
0.0
0
VERTEX
8
0
10
2.2298087760545156
20
-3.5744321279548467E-4
30
0.0
0
VERTEX
8
0
10
4.721606544737001
20
-0.0013882249474824716
30
0.0
0
VERTEX
8
0
10
7.449722660642097
20
-0.003030023348511759
30
0.0
0
VERTEX
8
0
10
10.388486478364456
20
-0.005220516560334149
30
0.0
0
VERTEX
8
0
10
13.512227352498726
20
-0.007897382727400438
30
0.0
0
VERTEX
8
0
10
16.79527463763954
20
-0.010998299994161421
30
0.0
0
VERTEX
8
0
10
20.211957688381553
20
-0.01446094650506791
30
0.0
0
VERTEX
8
0
10
23.736605859319408
20
-0.01822300040457069
30
0.0
0
VERTEX
8
0
10
27.34354850504775
20
-0.02222213983712057
30
0.0
0
VERTEX
8
0
10
31.007114980161234
20
-0.026396042947168342
30
0.0
0
VERTEX
8
0
10
34.70163463925449
20
-0.03068238787916481
30
0.0
0
VERTEX
8
0
10
38.40143683692217
20
-0.03501885277756076
30
0.0
0
VERTEX
8
0
10
42.080850927758924
20
-0.03934311578680703
30
0.0
0
VERTEX
8
0
10
45.714206266359405
20
-0.043592855051354365
30
0.0
0
VERTEX
8
0
10
49.275832207318224
20
-0.0477057487156536
30
0.0
0
VERTEX
8
0
10
52.74005810523008
20
-0.05161947492415553
30
0.0
0
VERTEX
8
0
10
56.08121331468958
20
-0.05527171182131096
30
0.0
0
VERTEX
8
0
10
59.273627190291364
20
-0.05860013755157065
30
0.0
0
VERTEX
8
0
10
62.2916290866301
20
-0.06154243025938543
30
0.0
0
VERTEX
8
0
10
65.10954835830043
20
-0.06403626808920612
30
0.0
0
VERTEX
8
0
10
67.70171435989698
20
-0.06601932918548346
30
0.0
0
VERTEX
8
0
10
70.04245644601444
20
-0.06742929169266831
30
0.0
0
VERTEX
8
0
10
72.1061039712474
20
-0.06820383375521144
30
0.0
0
VERTEX
8
0
10
73.86698629019057
20
-0.06828063351756368
30
0.0
0
VERTEX
8
0
10
75.29943275743852
20
-0.06759736912417576
30
0.0
0
VERTEX
8
0
10
75.29951032573248
20
-0.05903173755173848
30
0.0
0
VERTEX
8
0
10
75.29973452997939
20
-0.03327624994851253
30
0.0
0
VERTEX
8
0
10
75.30009261922683
20
0.009756983014373154
30
0.0
0
VERTEX
8
0
10
75.30057184252234
20
0.07015585066578925
30
0.0
0
VERTEX
8
0
10
75.30115944891357
20
0.14800824233460758
30
0.0
0
VERTEX
8
0
10
75.30184268744803
20
0.24340204734969895
30
0.0
0
VERTEX
8
0
10
75.30260880717331
20
0.3564251550399344
30
0.0
0
VERTEX
8
0
10
75.30344505713698
20
0.487165454734185
30
0.0
0
VERTEX
8
0
10
75.30433868638664
20
0.6357108357613219
30
0.0
0
VERTEX
8
0
10
75.30527694396984
20
0.8021491874502151
30
0.0
0
VERTEX
8
0
10
75.30624707893416
20
0.9865683991297378
30
0.0
0
VERTEX
8
0
10
75.30723634032718
20
1.18905636012876
30
0.0
0
VERTEX
8
0
10
75.30823197719646
20
1.4097009597761527
30
0.0
0
VERTEX
8
0
10
75.30922123858959
20
1.6485900874007873
30
0.0
0
VERTEX
8
0
10
75.31019137355413
20
1.905811632331535
30
0.0
0
VERTEX
8
0
10
75.31112963113766
20
2.1814534838972643
30
0.0
0
VERTEX
8
0
10
75.31202326038775
20
2.4756035314268505
30
0.0
0
VERTEX
8
0
10
75.31285951035198
20
2.788349664249163
30
0.0
0
VERTEX
8
0
10
75.31362563007792
20
3.1197797716930724
30
0.0
0
VERTEX
8
0
10
75.31430886861315
20
3.46998174308745
30
0.0
0
VERTEX
8
0
10
75.31489647500523
20
3.839043467761167
30
0.0
0
VERTEX
8
0
10
75.31537569830178
20
4.227052835043093
30
0.0
0
VERTEX
8
0
10
75.3157337875503
20
4.634097734262102
30
0.0
0
VERTEX
8
0
10
75.31595799179843
20
5.060266054747063
30
0.0
0
VERTEX
8
0
10
75.3160355600937
20
5.505645685826849
30
0.0
0
VERTEX
8
0
10
75.30540983359742
20
6.044136906214468
30
0.0
0
VERTEX
8
0
10
75.27138602899504
20
6.563086188678502
30
0.0
0
VERTEX
8
0
10
75.21074420862122
20
7.063389700682374
30
0.0
0
VERTEX
8
0
10
75.12026443481068
20
7.545943609689504
30
0.0
0
VERTEX
8
0
10
74.99672676989803
20
8.011644083163308
30
0.0
0
VERTEX
8
0
10
74.836911276218
20
8.46138728856721
30
0.0
0
VERTEX
8
0
10
74.63759801610527
20
8.896069393364622
30
0.0
0
VERTEX
8
0
10
74.39556705189447
20
9.316586565018973
30
0.0
0
VERTEX
8
0
10
74.10759844592032
20
9.723834970993677
30
0.0
0
VERTEX
8
0
10
73.77047226051748
20
10.118710778752156
30
0.0
0
VERTEX
8
0
10
73.38096855802063
20
10.502110155757824
30
0.0
0
VERTEX
8
0
10
72.93586740076444
20
10.874929269474107
30
0.0
0
VERTEX
8
0
10
72.43194885108359
20
11.238064287364423
30
0.0
0
VERTEX
8
0
10
71.86599297131278
20
11.592411376892189
30
0.0
0
VERTEX
8
0
10
71.23477982378665
20
11.938866705520823
30
0.0
0
VERTEX
8
0
10
70.5350894708399
20
12.278326440713752
30
0.0
0
VERTEX
8
0
10
69.7637019748072
20
12.611686749934385
30
0.0
0
VERTEX
8
0
10
68.91739739802325
20
12.939843800646152
30
0.0
0
VERTEX
8
0
10
67.9929558028227
20
13.26369376031246
30
0.0
0
VERTEX
8
0
10
66.98715725154024
20
13.58413279639674
30
0.0
0
VERTEX
8
0
10
65.89678180651052
20
13.902057076362409
30
0.0
0
VERTEX
8
0
10
64.71860953006826
20
14.218362767672883
30
0.0
0
VERTEX
8
0
10
63.44942048454811
20
14.533946037791585
30
0.0
0
VERTEX
8
0
10
62.085994732284746
20
14.84970305418193
30
0.0
0
VERTEX
8
0
10
60.625112335612855
20
15.166529984307342
30
0.0
0
VERTEX
8
0
10
59.23770670217911
20
15.447245899769566
30
0.0
0
VERTEX
8
0
10
57.767291084405755
20
15.722943782015255
30
0.0
0
VERTEX
8
0
10
56.21341462307636
20
15.993075487089607
30
0.0
0
VERTEX
8
0
10
54.575626458974405
20
16.257092871037827
30
0.0
0
VERTEX
8
0
10
52.85347573288347
20
16.514447789905105
30
0.0
0
VERTEX
8
0
10
51.04651158558702
20
16.764592099736642
30
0.0
0
VERTEX
8
0
10
49.15428315786863
20
17.00697765657764
30
0.0
0
VERTEX
8
0
10
47.17633959051179
20
17.241056316473287
30
0.0
0
VERTEX
8
0
10
45.11223002430004
20
17.46627993546879
30
0.0
0
VERTEX
8
0
10
42.9615036000169
20
17.682100369609348
30
0.0
0
VERTEX
8
0
10
40.72370945844589
20
17.887969474940157
30
0.0
0
VERTEX
8
0
10
38.39839674037054
20
18.083339107506408
30
0.0
0
VERTEX
8
0
10
35.98511458657438
20
18.267661123353307
30
0.0
0
VERTEX
8
0
10
33.48341213784093
20
18.440387378526047
30
0.0
0
VERTEX
8
0
10
30.892838534953718
20
18.60096972906983
30
0.0
0
VERTEX
8
0
10
28.212942918696264
20
18.748860031029857
30
0.0
0
VERTEX
8
0
10
25.443274429852096
20
18.883510140451314
30
0.0
0
VERTEX
8
0
10
22.583382209204732
20
19.00437191337941
30
0.0
0
VERTEX
8
0
10
19.63281539753774
20
19.110897205859338
30
0.0
0
VERTEX
8
0
10
16.591123135634575
20
19.2025378739363
30
0.0
0
VERTEX
8
0
10
13.457854564278795
20
19.278745773655494
30
0.0
0
VERTEX
8
0
10
10.232558824253921
20
19.33897276106211
30
0.0
0
VERTEX
8
0
10
6.914785056343481
20
19.382670692201355
30
0.0
0
VERTEX
8
0
10
3.504082401330999
20
19.409291423118425
30
0.0
0
VERTEX
8
0
10
0.0
20
19.41828680985851
30
0.0
0
SEQEND
0
POLYLINE
8
0
66
1
70
0
0
VERTEX
8
0
10
0.0
20
0.0
30
0.0
0
VERTEX
8
0
10
-2.2298087760545156
20
-3.5744321279548467E-4
30
0.0
0
VERTEX
8
0
10
-4.721606544737001
20
-0.0013882249474824716
30
0.0
0
VERTEX
8
0
10
-7.449722660642097
20
-0.003030023348511759
30
0.0
0
VERTEX
8
0
10
-10.388486478364456
20
-0.005220516560334149
30
0.0
0
VERTEX
8
0
10
-13.512227352498726
20
-0.007897382727400438
30
0.0
0
VERTEX
8
0
10
-16.79527463763954
20
-0.010998299994161421
30
0.0
0
VERTEX
8
0
10
-20.211957688381553
20
-0.01446094650506791
30
0.0
0
VERTEX
8
0
10
-23.736605859319408
20
-0.01822300040457069
30
0.0
0
VERTEX
8
0
10
-27.34354850504775
20
-0.02222213983712057
30
0.0
0
VERTEX
8
0
10
-31.007114980161234
20
-0.026396042947168342
30
0.0
0
VERTEX
8
0
10
-34.70163463925449
20
-0.03068238787916481
30
0.0
0
VERTEX
8
0
10
-38.40143683692217
20
-0.03501885277756076
30
0.0
0
VERTEX
8
0
10
-42.080850927758924
20
-0.03934311578680703
30
0.0
0
VERTEX
8
0
10
-45.714206266359405
20
-0.043592855051354365
30
0.0
0
VERTEX
8
0
10
-49.275832207318224
20
-0.0477057487156536
30
0.0
0
VERTEX
8
0
10
-52.74005810523008
20
-0.05161947492415553
30
0.0
0
VERTEX
8
0
10
-56.08121331468958
20
-0.05527171182131096
30
0.0
0
VERTEX
8
0
10
-59.273627190291364
20
-0.05860013755157065
30
0.0
0
VERTEX
8
0
10
-62.2916290866301
20
-0.06154243025938543
30
0.0
0
VERTEX
8
0
10
-65.10954835830043
20
-0.06403626808920612
30
0.0
0
VERTEX
8
0
10
-67.70171435989698
20
-0.06601932918548346
30
0.0
0
VERTEX
8
0
10
-70.04245644601444
20
-0.06742929169266831
30
0.0
0
VERTEX
8
0
10
-72.1061039712474
20
-0.06820383375521144
30
0.0
0
VERTEX
8
0
10
-73.86698629019057
20
-0.06828063351756368
30
0.0
0
VERTEX
8
0
10
-75.29943275743852
20
-0.06759736912417576
30
0.0
0
VERTEX
8
0
10
-75.29951032573248
20
-0.05903173755173848
30
0.0
0
VERTEX
8
0
10
-75.29973452997939
20
-0.03327624994851253
30
0.0
0
VERTEX
8
0
10
-75.30009261922683
20
0.009756983014373154
30
0.0
0
VERTEX
8
0
10
-75.30057184252234
20
0.07015585066578925
30
0.0
0
VERTEX
8
0
10
-75.30115944891357
20
0.14800824233460758
30
0.0
0
VERTEX
8
0
10
-75.30184268744803
20
0.24340204734969895
30
0.0
0
VERTEX
8
0
10
-75.30260880717331
20
0.3564251550399344
30
0.0
0
VERTEX
8
0
10
-75.30344505713698
20
0.487165454734185
30
0.0
0
VERTEX
8
0
10
-75.30433868638664
20
0.6357108357613219
30
0.0
0
VERTEX
8
0
10
-75.30527694396984
20
0.8021491874502151
30
0.0
0
VERTEX
8
0
10
-75.30624707893416
20
0.9865683991297378
30
0.0
0
VERTEX
8
0
10
-75.30723634032718
20
1.18905636012876
30
0.0
0
VERTEX
8
0
10
-75.30823197719646
20
1.4097009597761527
30
0.0
0
VERTEX
8
0
10
-75.30922123858959
20
1.6485900874007873
30
0.0
0
VERTEX
8
0
10
-75.31019137355413
20
1.905811632331535
30
0.0
0
VERTEX
8
0
10
-75.31112963113766
20
2.1814534838972643
30
0.0
0
VERTEX
8
0
10
-75.31202326038775
20
2.4756035314268505
30
0.0
0
VERTEX
8
0
10
-75.31285951035198
20
2.788349664249163
30
0.0
0
VERTEX
8
0
10
-75.31362563007792
20
3.1197797716930724
30
0.0
0
VERTEX
8
0
10
-75.31430886861315
20
3.46998174308745
30
0.0
0
VERTEX
8
0
10
-75.31489647500523
20
3.839043467761167
30
0.0
0
VERTEX
8
0
10
-75.31537569830178
20
4.227052835043093
30
0.0
0
VERTEX
8
0
10
-75.3157337875503
20
4.634097734262102
30
0.0
0
VERTEX
8
0
10
-75.31595799179843
20
5.060266054747063
30
0.0
0
VERTEX
8
0
10
-75.3160355600937
20
5.505645685826849
30
0.0
0
VERTEX
8
0
10
-75.30540983359742
20
6.044136906214468
30
0.0
0
VERTEX
8
0
10
-75.27138602899504
20
6.563086188678502
30
0.0
0
VERTEX
8
0
10
-75.21074420862122
20
7.063389700682374
30
0.0
0
VERTEX
8
0
10
-75.12026443481068
20
7.545943609689504
30
0.0
0
VERTEX
8
0
10
-74.99672676989803
20
8.011644083163308
30
0.0
0
VERTEX
8
0
10
-74.836911276218
20
8.46138728856721
30
0.0
0
VERTEX
8
0
10
-74.63759801610527
20
8.896069393364622
30
0.0
0
VERTEX
8
0
10
-74.39556705189447
20
9.316586565018973
30
0.0
0
VERTEX
8
0
10
-74.10759844592032
20
9.723834970993677
30
0.0
0
VERTEX
8
0
10
-73.77047226051748
20
10.118710778752156
30
0.0
0
VERTEX
8
0
10
-73.38096855802063
20
10.502110155757824
30
0.0
0
VERTEX
8
0
10
-72.93586740076444
20
10.874929269474107
30
0.0
0
VERTEX
8
0
10
-72.43194885108359
20
11.238064287364423
30
0.0
0
VERTEX
8
0
10
-71.86599297131278
20
11.592411376892189
30
0.0
0
VERTEX
8
0
10
-71.23477982378665
20
11.938866705520823
30
0.0
0
VERTEX
8
0
10
-70.5350894708399
20
12.278326440713752
30
0.0
0
VERTEX
8
0
10
-69.7637019748072
20
12.611686749934385
30
0.0
0
VERTEX
8
0
10
-68.91739739802325
20
12.939843800646152
30
0.0
0
VERTEX
8
0
10
-67.9929558028227
20
13.26369376031246
30
0.0
0
VERTEX
8
0
10
-66.98715725154024
20
13.58413279639674
30
0.0
0
VERTEX
8
0
10
-65.89678180651052
20
13.902057076362409
30
0.0
0
VERTEX
8
0
10
-64.71860953006826
20
14.218362767672883
30
0.0
0
VERTEX
8
0
10
-63.44942048454811
20
14.533946037791585
30
0.0
0
VERTEX
8
0
10
-62.085994732284746
20
14.84970305418193
30
0.0
0
VERTEX
8
0
10
-60.625112335612855
20
15.166529984307342
30
0.0
0
VERTEX
8
0
10
-59.23770670217911
20
15.447245899769566
30
0.0
0
VERTEX
8
0
10
-57.767291084405755
20
15.722943782015255
30
0.0
0
VERTEX
8
0
10
-56.21341462307636
20
15.993075487089607
30
0.0
0
VERTEX
8
0
10
-54.575626458974405
20
16.257092871037827
30
0.0
0
VERTEX
8
0
10
-52.85347573288347
20
16.514447789905105
30
0.0
0
VERTEX
8
0
10
-51.04651158558702
20
16.764592099736642
30
0.0
0
VERTEX
8
0
10
-49.15428315786863
20
17.00697765657764
30
0.0
0
VERTEX
8
0
10
-47.17633959051179
20
17.241056316473287
30
0.0
0
VERTEX
8
0
10
-45.11223002430004
20
17.46627993546879
30
0.0
0
VERTEX
8
0
10
-42.9615036000169
20
17.682100369609348
30
0.0
0
VERTEX
8
0
10
-40.72370945844589
20
17.887969474940157
30
0.0
0
VERTEX
8
0
10
-38.39839674037054
20
18.083339107506408
30
0.0
0
VERTEX
8
0
10
-35.98511458657438
20
18.267661123353307
30
0.0
0
VERTEX
8
0
10
-33.48341213784093
20
18.440387378526047
30
0.0
0
VERTEX
8
0
10
-30.892838534953718
20
18.60096972906983
30
0.0
0
VERTEX
8
0
10
-28.212942918696264
20
18.748860031029857
30
0.0
0
VERTEX
8
0
10
-25.443274429852096
20
18.883510140451314
30
0.0
0
VERTEX
8
0
10
-22.583382209204732
20
19.00437191337941
30
0.0
0
VERTEX
8
0
10
-19.63281539753774
20
19.110897205859338
30
0.0
0
VERTEX
8
0
10
-16.591123135634575
20
19.2025378739363
30
0.0
0
VERTEX
8
0
10
-13.457854564278795
20
19.278745773655494
30
0.0
0
VERTEX
8
0
10
-10.232558824253921
20
19.33897276106211
30
0.0
0
VERTEX
8
0
10
-6.914785056343481
20
19.382670692201355
30
0.0
0
VERTEX
8
0
10
-3.504082401330999
20
19.409291423118425
30
0.0
0
VERTEX
8
0
10
0.0
20
19.41828680985851
30
0.0
0
SEQEND
0
ENDSEC
0
EOF
