0
SECTION
2
TABLES
0
TABLE
2
LAYER
70
1
0
LAYER
2
0
70
0
62
7
6
CONTINUOUS
0
ENDTAB
0
ENDSEC
0
SECTION
2
ENTITIES
0
POLYLINE
8
0
66
1
70
0
0
VERTEX
8
0
10
0.0
20
0.0
30
0.0
0
VERTEX
8
0
10
0.0
20
0.278920716694215
30
0.0
0
VERTEX
8
0
10
0.0
20
1.0851162128925627
30
0.0
0
VERTEX
8
0
10
0.0
20
2.3727365077685962
30
0.0
0
VERTEX
8
0
10
0.0
20
4.09593162049587
30
0.0
0
VERTEX
8
0
10
0.0
20
6.20885157024794
30
0.0
0
VERTEX
8
0
10
0.0
20
8.665646376198353
30
0.0
0
VERTEX
8
0
10
0.0
20
11.42046605752067
30
0.0
0
VERTEX
8
0
10
0.0
20
14.427460633388439
30
0.0
0
VERTEX
8
0
10
0.0
20
17.640780122975215
30
0.0
0
VERTEX
8
0
10
0.0
20
21.014574545454565
30
0.0
0
VERTEX
8
0
10
0.0
20
24.502993920000016
30
0.0
0
VERTEX
8
0
10
0.0
20
28.06018826578514
30
0.0
0
VERTEX
8
0
10
0.0
20
31.64030760198349
30
0.0
0
VERTEX
8
0
10
0.0
20
35.19750194776862
30
0.0
0
VERTEX
8
0
10
0.0
20
38.685921322314066
30
0.0
0
VERTEX
8
0
10
0.0
20
42.05971574479342
30
0.0
0
VERTEX
8
0
10
0.0
20
45.2730352343802
30
0.0
0
VERTEX
8
0
10
0.0
20
48.28002981024795
30
0.0
0
VERTEX
8
0
10
0.0
20
51.034849491570284
30
0.0
0
VERTEX
8
0
10
0.0
20
53.49164429752071
30
0.0
0
VERTEX
8
0
10
0.0
20
55.60456424727276
30
0.0
0
VERTEX
8
0
10
0.0
20
57.32775936000003
30
0.0
0
VERTEX
8
0
10
0.0
20
58.615379654876065
30
0.0
0
VERTEX
8
0
10
0.0
20
59.42157515107442
30
0.0
0
VERTEX
8
0
10
0.0
20
59.70049586776863
30
0.0
0
VERTEX
8
0
10
37.658325979948756
20
82.437177715397
30
0.0
0
VERTEX
8
0
10
76.48331245652591
20
103.37162157896788
30
0.0
0
VERTEX
8
0
10
116.38172626856131
20
122.5795491910162
30
0.0
0
VERTEX
8
0
10
157.2603342548845
20
140.13668228407678
30
0.0
0
VERTEX
8
0
10
199.02590325432584
20
156.1187425906848
30
0.0
0
VERTEX
8
0
10
241.58520010571493
20
170.60145184337512
30
0.0
0
VERTEX
8
0
10
284.8449916478815
20
183.6605317746826
30
0.0
0
VERTEX
8
0
10
328.7120447196555
20
195.3717041171422
30
0.0
0
VERTEX
8
0
10
373.09312615986687
20
205.81069060328898
30
0.0
0
VERTEX
8
0
10
417.8950028073449
20
215.05321296565765
30
0.0
0
VERTEX
8
0
10
463.02444150092015
20
223.17499293678335
30
0.0
0
VERTEX
8
0
10
508.388209079422
20
230.251752249201
30
0.0
0
VERTEX
8
0
10
553.8930723816806
20
236.35921263544537
30
0.0
0
VERTEX
8
0
10
599.4457982465254
20
241.57309582805166
30
0.0
0
VERTEX
8
0
10
644.9531535127865
20
245.96912355955465
30
0.0
0
VERTEX
8
0
10
690.3219050192935
20
249.62301756248922
30
0.0
0
VERTEX
8
0
10
735.4588196048767
20
252.61049956939044
30
0.0
0
VERTEX
8
0
10
780.2706641083654
20
255.0072913127932
30
0.0
0
VERTEX
8
0
10
824.6642053685899
20
256.8891145252325
30
0.0
0
VERTEX
8
0
10
868.5462102243798
20
258.3316909392432
30
0.0
0
VERTEX
8
0
10
911.8234455145647
20
259.4107422873602
30
0.0
0
VERTEX
8
0
10
954.4026780779747
20
260.2019903021186
30
0.0
0
VERTEX
8
0
10
996.1906747534397
20
260.78115671605315
30
0.0
0
VERTEX
8
0
10
1037.0942023797895
20
261.223963261699
30
0.0
0
VERTEX
8
0
10
1077.0200277958538
20
261.6061316715909
30
0.0
0
VERTEX
8
0
10
1113.3095022346204
20
261.60291340559286
30
0.0
0
VERTEX
8
0
10
1150.2569731152275
20
260.8934474360681
30
0.0
0
VERTEX
8
0
10
1187.7090248631903
20
259.4589070830325
30
0.0
0
VERTEX
8
0
10
1225.5122419040217
20
257.28046566650187
30
0.0
0
VERTEX
8
0
10
1263.513208663237
20
254.33929650649202
30
0.0
0
VERTEX
8
0
10
1301.55850956635
20
250.61657292301877
30
0.0
0
VERTEX
8
0
10
1339.4947290388745
20
246.09346823609795
30
0.0
0
VERTEX
8
0
10
1377.1684515063257
20
240.75115576574524
30
0.0
0
VERTEX
8
0
10
1414.4262613942174
20
234.5708088319766
30
0.0
0
VERTEX
8
0
10
1451.1147431280638
20
227.5336007548077
30
0.0
0
VERTEX
8
0
10
1487.080481133379
20
219.62070485425446
30
0.0
0
VERTEX
8
0
10
1522.1700598356774
20
210.8132944503326
30
0.0
0
VERTEX
8
0
10
1556.2300636604732
20
201.092542863058
30
0.0
0
VERTEX
8
0
10
1589.1070770332808
20
190.43962341244637
30
0.0
0
VERTEX
8
0
10
1620.647684379614
20
178.83570941851366
30
0.0
0
VERTEX
8
0
10
1650.6984701249871
20
166.26197420127554
30
0.0
0
VERTEX
8
0
10
1679.106018694915
20
152.6995910807479
30
0.0
0
VERTEX
8
0
10
1705.7169145149112
20
138.1297333769465
30
0.0
0
VERTEX
8
0
10
1730.3777420104898
20
122.53357440988736
30
0.0
0
VERTEX
8
0
10
1752.935085607166
20
105.8922874995859
30
0.0
0
VERTEX
8
0
10
1773.2355297304534
20
88.18704596605814
30
0.0
0
VERTEX
8
0
10
1791.1256588058664
20
69.39902312931986
30
0.0
0
VERTEX
8
0
10
1806.4520572589186
20
49.50939230938687
30
0.0
0
VERTEX
8
0
10
1819.0613095151252
20
28.49932682627498
30
0.0
0
VERTEX
8
0
10
1828.8
20
6.35
30
0.0
0
VERTEX
8
0
10
1828.8000000000002
20
6.3203328
30
0.0
0
VERTEX
8
0
10
1828.7999999999997
20
6.234582399999999
30
0.0
0
VERTEX
8
0
10
1828.8
20
6.0976256
30
0.0
0
VERTEX
8
0
10
1828.8
20
5.9143392
30
0.0
0
VERTEX
8
0
10
1828.8
20
5.689599999999999
30
0.0
0
VERTEX
8
0
10
1828.8000000000002
20
5.428284799999998
30
0.0
0
VERTEX
8
0
10
1828.8000000000002
20
5.135270400000001
30
0.0
0
VERTEX
8
0
10
1828.8
20
4.8154336
30
0.0
0
VERTEX
8
0
10
1828.7999999999997
20
4.473651200000001
30
0.0
0
VERTEX
8
0
10
1828.8
20
4.114800000000001
30
0.0
0
VERTEX
8
0
10
1828.8
20
3.7437568000000003
30
0.0
0
VERTEX
8
0
10
1828.8
20
3.3653984
30
0.0
0
VERTEX
8
0
10
1828.8
20
2.9846015999999995
30
0.0
0
VERTEX
8
0
10
1828.8
20
2.6062431999999998
30
0.0
0
VERTEX
8
0
10
1828.8
20
2.2351999999999994
30
0.0
0
VERTEX
8
0
10
1828.8
20
1.8763487999999988
30
0.0
0
VERTEX
8
0
10
1828.8
20
1.5345663999999988
30
0.0
0
VERTEX
8
0
10
1828.8
20
1.2147295999999983
30
0.0
0
VERTEX
8
0
10
1828.8
20
0.9217152000000015
30
0.0
0
VERTEX
8
0
10
1828.8
20
0.660400000000001
30
0.0
0
VERTEX
8
0
10
1828.8
20
0.43566080000000074
30
0.0
0
VERTEX
8
0
10
1828.8
20
0.25237440000000044
30
0.0
0
VERTEX
8
0
10
1828.8
20
0.1154176000000002
30
0.0
0
VERTEX
8
0
10
1828.8
20
0.029667200000000053
30
0.0
0
VERTEX
8
0
10
1828.8
20
0.0
30
0.0
0
SEQEND
0
POLYLINE
8
0
66
1
70
0
0
VERTEX
8
0
10
0.0
20
0.0
30
0.0
0
VERTEX
8
0
10
0.0
20
-0.278920716694215
30
0.0
0
VERTEX
8
0
10
0.0
20
-1.0851162128925627
30
0.0
0
VERTEX
8
0
10
0.0
20
-2.3727365077685962
30
0.0
0
VERTEX
8
0
10
0.0
20
-4.09593162049587
30
0.0
0
VERTEX
8
0
10
0.0
20
-6.20885157024794
30
0.0
0
VERTEX
8
0
10
0.0
20
-8.665646376198353
30
0.0
0
VERTEX
8
0
10
0.0
20
-11.42046605752067
30
0.0
0
VERTEX
8
0
10
0.0
20
-14.427460633388439
30
0.0
0
VERTEX
8
0
10
0.0
20
-17.640780122975215
30
0.0
0
VERTEX
8
0
10
0.0
20
-21.014574545454565
30
0.0
0
VERTEX
8
0
10
0.0
20
-24.502993920000016
30
0.0
0
VERTEX
8
0
10
0.0
20
-28.06018826578514
30
0.0
0
VERTEX
8
0
10
0.0
20
-31.64030760198349
30
0.0
0
VERTEX
8
0
10
0.0
20
-35.19750194776862
30
0.0
0
VERTEX
8
0
10
0.0
20
-38.685921322314066
30
0.0
0
VERTEX
8
0
10
0.0
20
-42.05971574479342
30
0.0
0
VERTEX
8
0
10
0.0
20
-45.2730352343802
30
0.0
0
VERTEX
8
0
10
0.0
20
-48.28002981024795
30
0.0
0
VERTEX
8
0
10
0.0
20
-51.034849491570284
30
0.0
0
VERTEX
8
0
10
0.0
20
-53.49164429752071
30
0.0
0
VERTEX
8
0
10
0.0
20
-55.60456424727276
30
0.0
0
VERTEX
8
0
10
0.0
20
-57.32775936000003
30
0.0
0
VERTEX
8
0
10
0.0
20
-58.615379654876065
30
0.0
0
VERTEX
8
0
10
0.0
20
-59.42157515107442
30
0.0
0
VERTEX
8
0
10
0.0
20
-59.70049586776863
30
0.0
0
VERTEX
8
0
10
37.658325979948756
20
-82.437177715397
30
0.0
0
VERTEX
8
0
10
76.48331245652591
20
-103.37162157896788
30
0.0
0
VERTEX
8
0
10
116.38172626856131
20
-122.5795491910162
30
0.0
0
VERTEX
8
0
10
157.2603342548845
20
-140.13668228407678
30
0.0
0
VERTEX
8
0
10
199.02590325432584
20
-156.1187425906848
30
0.0
0
VERTEX
8
0
10
241.58520010571493
20
-170.60145184337512
30
0.0
0
VERTEX
8
0
10
284.8449916478815
20
-183.6605317746826
30
0.0
0
VERTEX
8
0
10
328.7120447196555
20
-195.3717041171422
30
0.0
0
VERTEX
8
0
10
373.09312615986687
20
-205.81069060328898
30
0.0
0
VERTEX
8
0
10
417.8950028073449
20
-215.05321296565765
30
0.0
0
VERTEX
8
0
10
463.02444150092015
20
-223.17499293678335
30
0.0
0
VERTEX
8
0
10
508.388209079422
20
-230.251752249201
30
0.0
0
VERTEX
8
0
10
553.8930723816806
20
-236.35921263544537
30
0.0
0
VERTEX
8
0
10
599.4457982465254
20
-241.57309582805166
30
0.0
0
VERTEX
8
0
10
644.9531535127865
20
-245.96912355955465
30
0.0
0
VERTEX
8
0
10
690.3219050192935
20
-249.62301756248922
30
0.0
0
VERTEX
8
0
10
735.4588196048767
20
-252.61049956939044
30
0.0
0
VERTEX
8
0
10
780.2706641083654
20
-255.0072913127932
30
0.0
0
VERTEX
8
0
10
824.6642053685899
20
-256.8891145252325
30
0.0
0
VERTEX
8
0
10
868.5462102243798
20
-258.3316909392432
30
0.0
0
VERTEX
8
0
10
911.8234455145647
20
-259.4107422873602
30
0.0
0
VERTEX
8
0
10
954.4026780779747
20
-260.2019903021186
30
0.0
0
VERTEX
8
0
10
996.1906747534397
20
-260.78115671605315
30
0.0
0
VERTEX
8
0
10
1037.0942023797895
20
-261.223963261699
30
0.0
0
VERTEX
8
0
10
1077.0200277958538
20
-261.6061316715909
30
0.0
0
VERTEX
8
0
10
1113.3095022346204
20
-261.60291340559286
30
0.0
0
VERTEX
8
0
10
1150.2569731152275
20
-260.8934474360681
30
0.0
0
VERTEX
8
0
10
1187.7090248631903
20
-259.4589070830325
30
0.0
0
VERTEX
8
0
10
1225.5122419040217
20
-257.28046566650187
30
0.0
0
VERTEX
8
0
10
1263.513208663237
20
-254.33929650649202
30
0.0
0
VERTEX
8
0
10
1301.55850956635
20
-250.61657292301877
30
0.0
0
VERTEX
8
0
10
1339.4947290388745
20
-246.09346823609795
30
0.0
0
VERTEX
8
0
10
1377.1684515063257
20
-240.75115576574524
30
0.0
0
VERTEX
8
0
10
1414.4262613942174
20
-234.5708088319766
30
0.0
0
VERTEX
8
0
10
1451.1147431280638
20
-227.5336007548077
30
0.0
0
VERTEX
8
0
10
1487.080481133379
20
-219.62070485425446
30
0.0
0
VERTEX
8
0
10
1522.1700598356774
20
-210.8132944503326
30
0.0
0
VERTEX
8
0
10
1556.2300636604732
20
-201.092542863058
30
0.0
0
VERTEX
8
0
10
1589.1070770332808
20
-190.43962341244637
30
0.0
0
VERTEX
8
0
10
1620.647684379614
20
-178.83570941851366
30
0.0
0
VERTEX
8
0
10
1650.6984701249871
20
-166.26197420127554
30
0.0
0
VERTEX
8
0
10
1679.106018694915
20
-152.6995910807479
30
0.0
0
VERTEX
8
0
10
1705.7169145149112
20
-138.1297333769465
30
0.0
0
VERTEX
8
0
10
1730.3777420104898
20
-122.53357440988736
30
0.0
0
VERTEX
8
0
10
1752.935085607166
20
-105.8922874995859
30
0.0
0
VERTEX
8
0
10
1773.2355297304534
20
-88.18704596605814
30
0.0
0
VERTEX
8
0
10
1791.1256588058664
20
-69.39902312931986
30
0.0
0
VERTEX
8
0
10
1806.4520572589186
20
-49.50939230938687
30
0.0
0
VERTEX
8
0
10
1819.0613095151252
20
-28.49932682627498
30
0.0
0
VERTEX
8
0
10
1828.8
20
-6.35
30
0.0
0
VERTEX
8
0
10
1828.8000000000002
20
-6.3203328
30
0.0
0
VERTEX
8
0
10
1828.7999999999997
20
-6.234582399999999
30
0.0
0
VERTEX
8
0
10
1828.8
20
-6.0976256
30
0.0
0
VERTEX
8
0
10
1828.8
20
-5.9143392
30
0.0
0
VERTEX
8
0
10
1828.8
20
-5.689599999999999
30
0.0
0
VERTEX
8
0
10
1828.8000000000002
20
-5.428284799999998
30
0.0
0
VERTEX
8
0
10
1828.8000000000002
20
-5.135270400000001
30
0.0
0
VERTEX
8
0
10
1828.8
20
-4.8154336
30
0.0
0
VERTEX
8
0
10
1828.7999999999997
20
-4.473651200000001
30
0.0
0
VERTEX
8
0
10
1828.8
20
-4.114800000000001
30
0.0
0
VERTEX
8
0
10
1828.8
20
-3.7437568000000003
30
0.0
0
VERTEX
8
0
10
1828.8
20
-3.3653984
30
0.0
0
VERTEX
8
0
10
1828.8
20
-2.9846015999999995
30
0.0
0
VERTEX
8
0
10
1828.8
20
-2.6062431999999998
30
0.0
0
VERTEX
8
0
10
1828.8
20
-2.2351999999999994
30
0.0
0
VERTEX
8
0
10
1828.8
20
-1.8763487999999988
30
0.0
0
VERTEX
8
0
10
1828.8
20
-1.5345663999999988
30
0.0
0
VERTEX
8
0
10
1828.8
20
-1.2147295999999983
30
0.0
0
VERTEX
8
0
10
1828.8
20
-0.9217152000000015
30
0.0
0
VERTEX
8
0
10
1828.8
20
-0.660400000000001
30
0.0
0
VERTEX
8
0
10
1828.8
20
-0.43566080000000074
30
0.0
0
VERTEX
8
0
10
1828.8
20
-0.25237440000000044
30
0.0
0
VERTEX
8
0
10
1828.8
20
-0.1154176000000002
30
0.0
0
VERTEX
8
0
10
1828.8
20
-0.029667200000000053
30
0.0
0
VERTEX
8
0
10
1828.8
20
0.0
30
0.0
0
SEQEND
0
ENDSEC
0
EOF
